<svg id="Group_4" data-name="Group 4" xmlns="http://www.w3.org/2000/svg" viewBox="0 0 1035.44 104.24"><defs><style>.cls-1{fill:#fff;}</style></defs><title>Group-nn</title><path id="Path_34" data-name="Path 34" class="cls-1" d="M229.59,109l-3.92,9.67,14.34,7s6.89.12,7,4.55c-2.38,8.24-9.61,1.09-9.61,1.09L223,125.72l-15.8,41.53s.91,21.8,32.54,6.16c1.88,1-7.15-7.66-7.15-7.66s9.74,2,23.59-4.43c-20.27,39.7-56,27.69-56,27.69l-6.77,2.16a15.24,15.24,0,0,1-2-3.28c-1.74-2.35-.76-1.67-2.57-3.58C152.13,163.18,165.52,129,165.52,129L181.42,146l-10.81,1.3s9.67,31.18,26.63,18.14c2.28-3.51,17-42.21,17-42.21L197.77,116s-6.49-.39-5.07-5.44c1.92-7.65,8-1.87,8-1.87L217,114.74l3.46-10.16s-5.79-8.13-1-13.42c10-10.55,21.08,1.17,20.76,7.9C240.16,108.61,229.59,109,229.59,109Z" transform="translate(-163.14 -86.93)"/><path id="Path_34-2" data-name="Path 34" class="cls-1" d="M1140.62,105.7l3.76,9.73,15.21-4.76s5.11-4.62,8.23-1.49c3.93,7.64-6.24,7.38-6.24,7.38l-14.27,5.84,16.93,41.08s15.59,15.26,27.93-17.8c2.07-.54-10.45-.69-10.45-.69s8.47-5.2,14.15-19.39c12.41,42.82-21.81,58.52-21.81,58.52l-3.46,6.21a16.2,16.2,0,0,1-3.69-1c-2.87-.52-1.7-.7-4.32-.85-41.29,9.81-55-24.28-55-24.28l23.27,1.53-7,8.35s28.4,16.1,31.83-5c-.74-4.11-16.51-42.41-16.51-42.41l-17,6s-5,4.16-7.42-.49c-3.84-6.89,4.52-6.82,4.52-6.82l16-6.73-4.44-9.78s-9.79-2-9.89-9.12c.07-14.55,16.16-13.58,20.54-8.46C1148.07,98.2,1140.62,105.7,1140.62,105.7Z" transform="translate(-163.14 -86.93)"/></svg>