<?xml version="1.0" encoding="utf-8"?>
<!-- Generator: Adobe Illustrator 23.0.2, SVG Export Plug-In . SVG Version: 6.00 Build 0)  -->
<svg version="1.1" id="Layer_1" xmlns="http://www.w3.org/2000/svg" xmlns:xlink="http://www.w3.org/1999/xlink" x="0px" y="0px"
	 viewBox="0 0 1368.9 452.3" style="enable-background:new 0 0 1368.9 452.3;" xml:space="preserve">
<style type="text/css">
	.st0{fill:#EDEDED;}
	.st1{fill:#B3D6EC;}
	.st2{fill:#275BA4;}
	.st3{fill:#59463F;}
	.st4{fill:#DE211F;}
	.st5{fill:#FFFFFF;}
	.st6{opacity:0.58;fill:#275BA4;enable-background:new    ;}
	.st7{fill:#618EC2;}
	.st8{fill:#E51F20;}
	.st9{fill:#B5CFEA;}
	.st10{fill:#B1D4EA;}
	.st11{fill:#79ADDB;}
	.st12{fill:#1A73BF;}
	.st13{fill:#535658;}
	.st14{fill:#D51C2F;}
	.st15{fill:#D22134;}
	.st16{fill:#7EC2BA;}
	.st17{fill:#9D6350;}
	.st18{fill:#D12234;}
	.st19{fill:#6C6A6D;}
	.st20{fill:#BE1E2F;}
	.st21{fill:#BBE6EE;}
	.st22{fill:#DC0918;}
	.st23{fill:#BBE7EE;}
	.st24{fill:#CB8880;}
	.st25{fill:#D12134;}
	.st26{fill:#CAA18C;}
	.st27{fill:#DEAF95;}
	.st28{fill:#342F33;}
	.st29{fill:#BDE9EE;}
	.st30{fill:#E49B88;}
	.st31{fill:#CEA28B;}
	.st32{fill:#442B20;}
	.st33{fill:#231816;}
	.st34{fill:#CFA48F;}
	.st35{fill:#8E101B;}
	.st36{fill:#F15C29;}
	.st37{fill:#4F4F51;}
	.st38{fill:#A31625;}
	.st39{fill:#424144;}
	.st40{fill:#F8961C;}
	.st41{fill:#BD1D2E;}
	.st42{fill:#FAB441;}
	.st43{fill:#B71B2B;}
	.st44{fill:#8F0C1B;}
	.st45{fill:#CEA38D;}
	.st46{fill:#BDE7EE;}
	.st47{fill:#BFE8F0;}
	.st48{fill:#BDE7F0;}
	.st49{fill:#BEE7EE;}
	.st50{fill:#B9E7EF;}
	.st51{fill:#DDB096;}
	.st52{fill:#AE1725;}
	.st53{fill:#D21F33;}
	.st54{fill:#6C686B;}
	.st55{fill:#6AC0D6;}
	.st56{fill:#D6182B;}
	.st57{fill:#BCE8ED;}
	.st58{fill:#6A696E;}
	.st59{fill:#659CA4;}
	.st60{fill:#BDE8EE;}
	.st61{fill:#F05A28;}
	.st62{fill:#CC9E8B;}
	.st63{fill:#5A8B65;}
	.st64{fill:#CB8780;}
	.st65{fill:#6C6C71;}
	.st66{fill:#B58772;}
	.st67{fill:#D61B23;}
	#Group_25{-webkit-animation: jello-horizontal 0.9s both;
	        animation: jello-horizontal 0.9s both;}
</style>
<path id="Path_36" class="st0" d="M0,0h1368.9v391H0V0z"/>
<g id="Group_25" transform="translate(2149 23)">
	<g id="Group_2">
		<path id="Path_9" class="st1" d="M-1939.2,55.2c0,0-51.9,21.4-69.7,93.1c0.7,0.2,62.7,2.7,62.7,2.7s-0.4-62.7,10.9-96.8"/>
		<path id="Path_10" class="st2" d="M-1932.1,67.6c11,62.5-6.2,85.4-6.2,85.4l75.4,5C-1862.9,158-1860.6,87.9-1932.1,67.6z"/>
		<path id="Path_11" class="st3" d="M-2016.1,151.8l1.5,11c0,0,9.5,31.8,131.5,27.3c1.2-2.1,17.2-11.9,26.4-30.3
			C-1936,166.9-2016.1,151.8-2016.1,151.8z"/>
		
			<rect id="Rectangle_2" x="-1999.5" y="103.6" transform="matrix(0.1049 -0.9945 0.9945 0.1049 -1840.6329 -1832.7919)" class="st3" width="122.1" height="5"/>
		<path id="Path_12" class="st4" d="M-1930.7,48.4c0,0,31.4,6.8,46.5,3.1c-7.2,4.6-21.8,6.6-21.8,6.6c5.6,4.4,12.4,7.2,19.5,8.1
			c-22-2.8-44.9-4.3-44.9-4.3L-1930.7,48.4z"/>
		<path id="Path_13" class="st5" d="M-1907.6,115.7l5.6-13.4l6.7,11.9l15.5,1.4l-11.2,10.5l4.7,13.4l-12.6-4.9l-12.3,7.6l0.7-13.9
			l-10.7-10.4L-1907.6,115.7z"/>
	</g>
	<path id="Path_14" class="st6" d="M-1974,81.2l31.1,9.5l1.6-12.3l-24.6-5.1L-1974,81.2z"/>
	<path id="Path_15" class="st7" d="M-1986.8,97.3l41.5,15.6l-0.9,13.9l-48.8-15.5L-1986.8,97.3z"/>
	<path id="Path_16" class="st7" d="M-2003,129.5l56.2,14.2v7l-60.8-7L-2003,129.5z"/>
</g>
<g id="Group_20" transform="translate(1813 -29)">
	<path id="Path_21" class="st8" d="M-691.5,244.9l78.6-19l-4.3,17.7l-58.5,14.7L-691.5,244.9z"/>
	
		<rect id="Rectangle_3" x="-658" y="176.1" transform="matrix(0.9744 -0.225 0.225 0.9744 -63.1067 -142.5549)" class="st3" width="2" height="59"/>
	<path id="Path_22" class="st9" d="M-663.8,181.1l-20.1,58.6c0,0,11-7.4,32.4-7.7C-659,217.9-663.8,181.1-663.8,181.1z"/>
	<path id="Path_23" class="st9" d="M-661.7,180.9l43.6,43.7c0,0-13.1-1.9-32.3,7.2C-649.9,216-661.7,180.9-661.7,180.9z"/>
</g>
<g id="Group_23" transform="translate(1459 172)">
	<path id="Path_21-2" class="st8" d="M-691.5,244.9l78.6-19l-4.3,17.7l-58.5,14.7L-691.5,244.9z"/>
	
		<rect id="Rectangle_3-2" x="-658" y="176.1" transform="matrix(0.9744 -0.225 0.225 0.9744 -63.1067 -142.5549)" class="st3" width="2" height="59"/>
	<path id="Path_22-2" class="st9" d="M-663.8,181.1l-20.1,58.6c0,0,11-7.4,32.4-7.7C-659,217.9-663.8,181.1-663.8,181.1z"/>
	<path id="Path_23-2" class="st9" d="M-661.7,180.9l43.6,43.7c0,0-13.1-1.9-32.3,7.2C-649.9,216-661.7,180.9-661.7,180.9z"/>
</g>
<path id="Path_17" class="st10" d="M0,158.2c0,0,286.1,83.1,638.4,96c548.1,8.6,730.4-96,730.4-96v252.2L0,420.5V158.2z"/>
<path id="Path_18" class="st11" d="M0,377.5c0,0,254.3-90.3,596.5-90.3s772.3,90.3,772.3,90.3v58.3L0,428.3V377.5z"/>
<path id="Union_1" class="st12" d="M0,452.3V326.7c0,0,327,94.6,645.4,105.3h111.4c330.5-11.9,612-129.7,612-129.7l-0.2,129.7h0.2
	v20.3H0z"/>
<g id="Group_24" transform="translate(1628.996 -437.844) rotate(24)">
	<path id="Path_21-3" class="st8" d="M-806.2,1263.2l78.6-19l-4.3,17.7l-58.5,14.7L-806.2,1263.2z"/>
	
		<rect id="Rectangle_3-3" x="-801.3" y="1222.9" transform="matrix(0.225 0.9744 -0.9744 0.225 594.3649 1700.5049)" class="st3" width="59" height="2"/>
	<path id="Path_22-3" class="st9" d="M-778.5,1199.4l-20.1,58.6c0,0,11-7.4,32.4-7.7C-773.7,1236.2-778.5,1199.4-778.5,1199.4z"/>
	<path id="Path_23-3" class="st9" d="M-776.5,1199.2l43.6,43.7c0,0-13.1-1.9-32.3,7.2C-764.7,1234.3-776.5,1199.2-776.5,1199.2z"/>
</g>
<path id="Path_37" class="st13" d="M1064,94.3c0,0,14-0.1,17,2.6c3.8-6.5,11.9-9.8,11.9-9.8s-8.4,10.7-9.8,15.4
	C1077.7,98.9,1064,94.3,1064,94.3z"/>
<path id="Path_38" class="st13" d="M1115,102.3c0,0,14-0.1,17,2.6c3.8-6.5,11.9-9.8,11.9-9.8s-8.4,10.7-9.8,15.4
	C1128.7,106.9,1115,102.3,1115,102.3z"/>
<g>
	<path class="st14" d="M954.1,343.1c1,4.1,2.1,8.2,3.1,12.3c0.4,1.5,0.7,3,1.1,4.5c-0.2,0.3-0.4,0.6-0.8,0.5
		c-0.5-0.2-0.5-0.6-0.6-1.1c-1-4-2-8-2.9-12c-0.1-0.5-0.3-1-0.4-1.6c-0.2-0.6-0.5-0.7-1-0.5c-4.4,1.7-8.7,3.4-13.2,5
		c-1.2,0.4-2.4,1-3.6,1.2c-0.6,0.3-1.3,0.6-2,0.6c-0.3-0.1-0.6-0.2-0.6-0.6c0.1-0.6,0.6-0.8,1.1-1s0.9-0.5,1.4-0.7
		c2.5-1.1,5-2,7.5-2.9c2.2-0.8,4.4-1.8,6.8-2.3c0.3-0.1,0.6-0.2,0.9-0.4c0.4-0.2,0.8-0.4,1.2-0.5c0.7-0.1,1-0.6,0.7-1.2
		c-0.8-1.5-0.8-3.1-1.2-4.7c-0.7-2.7-1.4-5.3-2-8c-0.2-0.8-0.2-0.9-1.1-0.6c-3.2,1.1-6.4,2.2-9.6,3.2c-0.3,0.1-0.5,0.2-0.8,0.2
		c-0.5,0.2-1,0.4-1.6,0.5c-0.3,0-0.7,0.1-0.9-0.2c-0.2-0.2-0.2-0.4-0.1-0.6c0.7-0.8,1.7-1.1,2.6-1.5c2.8-1.1,5.6-1.9,8.5-2.7
		c0.6-0.2,1.1-0.3,1.7-0.5c0.6-0.2,0.7-0.5,0.6-1c-0.6-2.2-1.1-4.5-1.7-6.7c-0.1-0.4-0.2-0.8-0.3-1.2c-0.1-0.7-0.4-1.2-1.1-1.4
		c-1-1-2.2-1.5-3.4-2.2c-0.6-0.4-1.3-0.1-1.9,0.6c-0.6,0.7-0.9,1.4-1.2,2.2c-0.8,2.2-1.5,4.5-1.8,6.9c-0.1,0.5-0.2,1-0.3,1.5
		s-0.4,0.9-0.6,1.3c-0.1,0.2-0.3,0.4-0.6,0.3c-0.3-0.2-0.3-0.5-0.3-0.8c0.2-1.5,0.5-3.1,0.7-4.6c0.1-0.7,0.5-1.2,0.8-1.9
		c0.1-0.3,0.2-0.6,0.2-1c0.5-1.6,0.7-3.3,1.5-4.8c0.4-0.8,0.7-1.5,1.4-2.1c0.7-0.5,1.4-0.6,2.2-0.1c1.3,0.9,2.7,1.8,4,2.7
		c0.4,0.2,0.5,0.5,0.6,0.9c0.7,2.6,1.4,5.2,2.1,7.9c0.7,2.9,1.5,5.7,2.2,8.6C952.2,336.1,953.1,339.6,954.1,343.1z"/>
	<path class="st15" d="M957.5,360.3c0.3-0.1,0.5-0.2,0.8-0.3c0.2,0.5,0.3,1,0.5,1.5c0.3,0.3,0.4,0.7,0.3,1.2c-0.1,0.2,0,0.3,0.1,0.5
		c0.4,1.6,0.8,3.3,1.2,4.9c-0.1,0.6-0.5,0.5-1,0.4c-0.5-0.3-0.6-0.9-0.7-1.4c-0.3-1.1-0.6-2.2-0.8-3.3c-0.2-0.8-0.2-0.8-1-0.6
		c-3.6,1.3-7.1,2.7-10.7,4c-3.8,1.4-7.6,2.9-11.4,4.2c-1.2,0.5-2.4,0.9-3.7,1.3c-0.4,0.1-0.9,0.3-1.3,0.1c-0.2-0.2-0.2-0.4-0.2-0.6
		c0.2-0.4,0.6-0.6,0.9-0.8c1.4-0.7,2.7-1.4,4.1-1.9c3.7-1.7,7.5-3.1,11.3-4.6c3.5-1.4,7-2.6,10.4-3.9
		C956.8,360.8,957.1,360.5,957.5,360.3z"/>
	<path class="st16" d="M959.1,362.7c-0.2-0.4-0.3-0.8-0.3-1.2C959.3,361.8,959.8,362.1,959.1,362.7z"/>
	<path class="st17" d="M932,410.1c2.4,0.5,4.8,0.7,7.2,0.9c3.4,0.4,6.9,0.7,10.3,1c1.1,0.1,2.2,0.2,3.3,0.3
		c-1.7,0.7-3.5,0.9-5.2,1.2c-2,0.3-4,0.4-6,0.5c-1.3-0.1-2.6-0.2-3.9-0.3c-1.9-0.2-3.8-0.5-5.6-1.3c-0.5-0.2-1.1-0.4-1.4-1
		c0.2-0.4,0.6-0.3,0.9-0.2c2.7,0.2,5.4,0.7,8.1,1c0.8,0.1,1.5,0.1,2,0.2c-3-0.3-6.3-0.6-9.5-1.3c-0.4-0.1-0.9-0.1-1.2-0.6
		C931.3,409.9,931.6,409.9,932,410.1z"/>
	<path class="st18" d="M964.5,384c1,3.9,1.9,7.8,2.9,11.7c0.2,0.9,0.5,1.9,0.7,2.8c0.1,0.6,0.3,0.8,0.9,0.4c1.8-1.2,3.7-2.2,5.5-3.4
		c2.4-1.6,4.8-3.3,7.1-5.1c0.9-0.7,1.7-1.3,2.8-1.7c0.3-0.1,0.5-0.2,0.8,0c0.3,0.3,0.1,0.5,0,0.8c-0.2,0.8-0.6,1.5-1.1,2.1
		c-1.8,2.6-3.8,5.1-6.1,7.3c-0.6-0.5,0-0.9,0.1-1.3s0.6-0.8,0.3-1.1c-0.4-0.4-0.9,0-1.3,0.2c-1,0.6-2.1,1.2-3.1,1.9
		c-1.2,0.8-2.5,1.6-3.8,2.4c-2.3,1.4-4.8,2.7-7.3,3.7c-2.2,0.9-4.4,1.9-6.8,2.6c-0.4,0.1-0.8,0.2-1.2,0.2c-0.1,0-0.2,0-0.2-0.1
		c-0.3-0.4-0.2,0.1-0.2,0.1c-0.2,0.3-0.5,0.4-0.8,0.5c-1.8,0.7-3.7,0.9-5.5,1.6c-0.3,0.1-0.7,0.2-1-0.2c-0.2-0.4-0.5-0.8-0.2-1.3
		s0.8-0.5,1.3-0.4c0.2,0,0.5,0.1,0.6-0.1c0.8-0.8,1.8-0.7,2.7-0.6c0.2,0,0.4,0,0.5-0.2c0.6-0.8,1.5-1.1,2.4-1.1c0.5,0,0.5-0.6,1-0.7
		c0.4-0.2,0.9-0.3,1.2-0.6c0.7-0.5,1.5-0.8,2.3-1c0.2-0.1,0.3-0.2,0.5-0.3c0-0.4-0.3-0.3-0.4-0.3c-0.7-0.2-1.3-0.3-2-0.5
		c-1.6-0.5-3.1-1.4-4.6-2.1c-1-0.4-2-0.7-2.9-1.3c-0.2-0.1-0.4-0.2-0.4-0.5c0.2-0.4,0.6-0.3,0.9-0.2c1.4,0.3,2.8,0.7,4.1,1.1
		c2.8,0.8,5.6,1.4,8.5,2.1c0.4,0.1,0.7,0,1.1-0.2c0.6-0.3,1.2-0.6,1.8-0.9c1.1-0.6,1.1-0.6,0.9-1.8c-0.8-3.9-1.9-7.8-2.8-11.7
		c-0.1-0.4-0.2-0.7-0.2-1.1c-0.2-0.6-0.5-1.3-0.5-1.9c-0.4-1.1-0.4-1.1-1.5-0.8c-0.7,0.2-1.4,0.3-2.1,0.5c-1.2,0.5-2.4,0.8-3.7,1.1
		c-6.5,1.8-13,3.6-19.7,5.1c-0.5,0.1-1,0-1.5,0.3c-0.6,0.2-1.1,0.3-1.7,0.4c-0.4,0.1-0.8,0.1-1.1-0.3c-0.1-0.5,0.3-0.8,0.5-1.2
		c0.7-0.4,1.4-0.7,2.2-0.8c3.1-1,6.2-1.8,9.3-2.6c2.3-0.6,4.6-1.2,6.8-1.9c1-0.3,2-0.2,3-0.7c1.8-0.4,3.5-1.1,5.3-1.3
		c0.3,0,0.5-0.3,0.8-0.4c0.6-0.1,1.2-0.3,1.8-0.4s0.8-0.4,0.6-1c-0.8-3.1-1.4-6.2-2.3-9.3c-0.1-0.4-0.2-0.9,0.1-1.3
		c0.3-0.3,0.6-0.3,1-0.2c0.7,0.6,0.7,1.4,0.8,2.1c0.3,0.5,0.1,0.9,0.1,1.4c0.5,2,1,3.9,1.5,5.9c0.3,0.1,0.4,0.3,0.5,0.6
		c0.2,1,0.6,2,0.8,3.1c-0.1,0.4,0.2,0.7,0.3,1C964.6,383.5,964.6,383.8,964.5,384z"/>
	<path class="st19" d="M961.5,372.5c-0.2-0.4-0.3-0.8-0.3-1.2c0.2-0.6,0.5-1,0.9-1.4c0.1-0.1,0.3-0.3,0.1-0.4
		c-0.1-0.1-0.3-0.1-0.4-0.1c-0.4,0-0.8,0.1-1.2-0.2c-0.3,0-0.6,0.1-1,0.1c-0.2,0.4-0.5,0.5-0.9,0.6c-2.3,0.7-4.6,1.5-6.9,2.3
		c-0.4,0.1-0.8,0.4-1.2,0c0-0.9,0.9-1,1.3-1.4c0.2-0.2,0.5-0.3,0.7-0.5c1.9-0.8,3.8-1.5,5.7-2.1c0.3-0.1,0.7-0.2,1,0.1
		c0.3-0.1,0.6-0.2,0.9-0.3c0.6-0.1,1.3-0.2,1.9-0.2c1.3,0,1.9,0.9,1.3,2.1C963.1,370.9,962.3,371.7,961.5,372.5z"/>
	<path class="st20" d="M947.2,409.4c0.1,0,0.2,0.1,0.2,0.1c2.3-0.7,4.6-1.3,6.9-2c0.1-0.3,0.4-0.1,0.6-0.2c2.3-0.6,4.5-1.6,6.7-2.4
		c1.9-0.7,3.7-1.6,5.5-2.5c1.7-0.9,3.3-1.9,4.9-2.9c1.6-1,3.2-2.1,4.8-3c0.1-0.1,0.3-0.1,0.5-0.2c0.5-0.2,1.1-0.4,1.4,0.1
		c0.3,0.5-0.1,0.9-0.3,1.3c-0.1,0.5-0.7,0.8-0.6,1.4c-1.7,2.3-4.1,3.8-6.4,5.2c-2.1,1.3-4.4,2.4-6.5,3.6c-3.1,0.9-6.1,2.1-9.1,3.3
		c0-0.1-0.1-0.1-0.1-0.2c0.2-0.1,0.4-0.2,0.6-0.3c0.3-0.2,0.8-0.3,0.6-0.7c-0.1-0.3-0.6-0.3-0.9-0.3c-2.8,0.1-5.5,0.6-8.3,1
		c-0.4,0.1-0.9,0.3-1.2,0s0.3-0.7,0.3-1.1C946.9,409.3,947,409.4,947.2,409.4z"/>
	<path class="st20" d="M938.2,409.9c0.1,0,0.2,0.1,0.2,0.1c2.4-0.4,4.7-0.9,7.1-1.3c0.1-0.3,0.4-0.1,0.6-0.1c2.4-0.3,4.6-1.1,7-1.7
		c2-0.5,3.9-1.2,5.7-1.9c1.8-0.7,3.5-1.6,5.2-2.4s3.4-1.8,5.1-2.5c0.2-0.1,0.3-0.1,0.5-0.1c0.5-0.1,1.1-0.3,1.4,0.3
		c0.3,0.5-0.2,0.9-0.4,1.3c-0.2,0.5-0.7,0.7-0.8,1.3c-1.9,2.1-4.4,3.3-6.9,4.5c-2.2,1.1-4.6,2-6.9,2.9c-3.2,0.6-6.3,1.4-9.4,2.3
		c0-0.1-0.1-0.1-0.1-0.2c0.2-0.1,0.4-0.1,0.6-0.2c0.3-0.2,0.8-0.2,0.7-0.6c-0.1-0.3-0.6-0.3-0.9-0.3c-2.8-0.2-5.5,0-8.3,0.1
		c-0.4,0-0.9,0.2-1.2-0.1c-0.2-0.4,0.3-0.7,0.4-1C937.9,409.8,938,409.9,938.2,409.9z"/>
	<path class="st20" d="M937.5,410.9c0.1,0,0.2,0.1,0.2,0.1c2.4-0.4,4.7-0.9,7.1-1.3c0.1-0.3,0.4-0.1,0.6-0.1c2.4-0.3,4.6-1.1,7-1.7
		c2-0.5,3.9-1.2,5.7-1.9c1.8-0.7,3.5-1.6,5.2-2.4s3.4-1.8,5.1-2.5c0.2-0.1,0.3-0.1,0.5-0.1c0.5-0.1,1.1-0.3,1.4,0.3
		c0.3,0.5-0.2,0.9-0.4,1.3c-0.2,0.5-0.7,0.7-0.8,1.3c-1.9,2.1-4.4,3.3-6.9,4.5c-2.2,1.1-4.6,2-6.9,2.9c-3.2,0.6-6.3,1.4-9.4,2.3
		c0-0.1-0.1-0.1-0.1-0.2c0.2-0.1,0.4-0.1,0.6-0.2c0.3-0.2,0.8-0.2,0.7-0.6c-0.1-0.3-0.6-0.3-0.9-0.3c-2.8-0.2-5.5,0-8.3,0.1
		c-0.4,0-0.9,0.2-1.2-0.1c-0.2-0.4,0.3-0.7,0.4-1C937.2,410.8,937.4,410.9,937.5,410.9z"/>
	<path class="st20" d="M937.8,411.3c0.1,0,0.2,0.1,0.2,0.1c2.4-0.4,4.7-0.9,7.1-1.3c0.1-0.3,0.4-0.1,0.6-0.1c2.4-0.3,4.6-1.1,7-1.7
		c2-0.5,3.9-1.2,5.7-1.9c1.8-0.7,3.5-1.6,5.2-2.4s3.4-1.8,5.1-2.5c0.2-0.1,0.3-0.1,0.5-0.1c0.5-0.1,1.1-0.3,1.4,0.3
		c0.3,0.5-0.2,0.9-0.4,1.3c-0.2,0.5-0.7,0.7-0.8,1.3c-1.9,2.1-4.4,3.3-6.9,4.5c-2.2,1.1-4.6,2-6.9,2.9c-3.2,0.6-6.3,1.4-9.4,2.3
		c0-0.1-0.1-0.1-0.1-0.2c0.2-0.1,0.4-0.1,0.6-0.2c0.3-0.2,0.8-0.2,0.7-0.6c-0.1-0.3-0.6-0.3-0.9-0.3c-2.8-0.2-5.5,0-8.3,0.1
		c-0.4,0-0.9,0.2-1.2-0.1c-0.2-0.4,0.3-0.7,0.4-1C937.5,411.2,937.7,411.2,937.8,411.3z"/>
	<path class="st10" d="M957.5,360.3c0.1,0.4,0.1,0.6-0.4,0.8c-7.4,2.7-14.8,5.5-22,8.5c-0.1,0-0.2,0.1-0.3,0.1
		c-0.5-0.2-0.5-0.6-0.4-1c0.2-4.4,0.3-8.7,0.6-13.1c0.1-1.1,0.1-2.2,0.2-3.2c0-0.4,0.2-0.8,0.5-1.2c5.8-2.2,11.6-4.4,17.4-6.6
		c0.7-0.3,0.7,0.1,0.8,0.5c1.2,4.9,2.4,9.8,3.5,14.6C957.4,360,957.4,360.2,957.5,360.3z"/>
	<path class="st10" d="M937.9,332.3c3.8-1.2,7.5-2.5,11.3-3.8c0.3-0.1,0.5,0,0.5,0.3c0.8,3.5,1.9,7,2.6,10.6c0.3,1.3,0.6,2.5,1,3.8
		c0.1,0.4,0.1,0.6-0.4,0.7c-0.6,0.1-1.2,0.4-1.9,0.6c-2.9,0.5-5.5-0.8-8.2-1.1c-0.3,0-0.5-0.2-0.5-0.5c0.7-0.8,0.2-1.6,0-2.4
		c-0.1-0.7-0.4-1.3-0.8-2.1c-0.2,0.7,0.1,1.1,0.1,1.6c0.1,0.4,0.2,0.7,0.3,1.1c0,0.4,0,0.9-0.6,0.6c-0.1,0-0.2-0.1-0.2,0
		c-0.9,0.7-1.1-0.1-1.4-0.6c-0.3-0.5-0.6-1-1.1-1.6c0,1,0.5,1.5,0.8,2.2c0.1,0.4,0.4,0.8,0.2,1.2c-0.3,0.2-0.6,0.1-0.7-0.1
		c-0.4-0.5-0.9-0.6-1.5-0.7c-0.5-0.1-0.8-0.3-1-0.7c-0.1-1.2,0.2-2.3,0.3-3.5c0.1-1.3,0.3-2.5,0.5-3.8
		C937.2,333.4,937.3,332.7,937.9,332.3z"/>
	<path class="st10" d="M945.9,317c0.7,0.2,0.9,0.7,1.1,1.4c0.7,2.9,1.5,5.8,2.2,8.7c0.1,0.5,0,0.7-0.5,0.8c-3.6,1-7.2,2-10.7,3.3
		c-0.2-0.2-0.3-0.4-0.2-0.7c0.3-2.3,0.8-4.6,1.5-6.8c0.6-1.8,1.3-3.6,2.3-5.2c0.5-0.7,1.1-1.2,1.8-1.6
		C944.4,316.2,945.1,316.6,945.9,317z"/>
	<path class="st21" d="M935.7,351.3c-0.2,3.4-0.4,6.8-0.6,10.2c-0.1,2.7-0.3,5.5-0.3,8.3c-1.7,0.8-3.3,1.6-5,2.4
		c-0.3-0.2-0.3-0.6-0.2-0.9c0.4-2.2,0.8-4.3,1.1-6.5c0.2-1.6,0.5-3.3,0.7-4.9c0.2-1.4,0.4-2.8,0.6-4.2c0.1-0.8,0.3-1.7,0.4-2.5
		c0.1-1.2,0.1-1.2,1.3-1.3C934.4,351.7,935,351.5,935.7,351.3z"/>
	<path class="st10" d="M942.4,342.8c0.5,0.4,1.2,0.4,1.7,0.5c1.3,0.2,2.6,0.6,3.9,0.8c0.2,0,0.5,0.2,0.7,0.1
		c0.7-0.6,1.4,0.3,2.1,0.1c0.1,0,0.1,0.1,0.2,0.1c-3.8,1.4-7.5,2.7-11.3,4.1c-1.3,0.5-2.6,1-4,1.6c-0.4-0.3-0.4-0.8-0.3-1.2
		c0.2-2.3,0.3-4.5,0.7-6.8c0.1-0.4,0.1-0.7,0.5-0.9c0.2,0.1,0.3,0.2,0.5,0.2c0.9,0,1.7,0.1,2.1,1c0,0,0.2,0,0.3,0s0.2,0,0.2,0
		c0.8,0.4,0.8,0.4,1.1-0.4c0.1-0.4,0.3-0.6,0.7-0.3C941.9,342.1,942.2,342.4,942.4,342.8z"/>
	<path class="st21" d="M945.9,317c-1.5-0.5-2.6-0.1-3.7,1.4c-1.4,2-2.1,4.3-2.8,6.6c-0.6,2-0.9,4-1.3,6.1c-0.9,0.4-1.7,0.7-2.6,1.1
		c-0.2-1,0.2-1.9,0.3-2.9c0.1-1.1,0.5-2.2,0.8-3.3c0.6-2.7,1-5.4,2-7.9c0.4-1,0.8-2.1,1.6-2.9c0.9-0.9,1.7-1,2.7-0.3
		C943.9,315.6,944.9,316.3,945.9,317z"/>
	<path class="st21" d="M936.6,341.3c-0.4,2.9-0.6,5.9-0.9,8.8c-0.8,0.5-1.8,0.8-2.5,1.4c-0.6,0.4-0.6-0.1-0.6-0.5
		c0.3-1.3,0.4-2.6,0.6-3.9c0.3-2,0.6-4,0.8-6c0.1-1.3,0.4-2.6,0.6-3.9c0.2-1.2,0.3-2.3,0.5-3.5c0.1-0.4,0-0.9,0.4-1.1
		c0.8,0,1.6-0.4,2.4-0.5C937.3,335.3,937,338.3,936.6,341.3z"/>
	<path class="st22" d="M935.5,332.8c-0.5,2.2-0.7,4.4-1,6.6c-0.6,3.8-1.1,7.6-1.6,11.4c0,0.2-0.1,0.5-0.1,0.7c0,0.4,0.3,0.1,0.4,0.1
		c0.1,0.3,0.3,0.2,0.5,0.3c-0.9,0.1-1,0.7-1.2,1.5c-0.6,4.5-1.3,9-2,13.5c-0.3,1.8-0.5,3.6-0.8,5.4c0,0.2,0,0.3,0,0.5
		c0,0.1,0,0.3-0.1,0.4c-0.2,0.2-0.3,0.4-0.6,0.1c-0.3-1.2,0.1-2.3,0.2-3.4c0.1-0.9,0-1.9,0.7-2.7c0.5-3,0.9-6,1.3-9
		c0.4-2.8,0.9-5.7,1.3-8.5c0.6-4.2,1.2-8.4,1.7-12.6c0.2-1.3,0.3-2.6,0.5-4c0.2-1.1,0.4-2.3,0.6-3.4c0.1-0.3,0.2-0.6,0.1-0.9
		c0.1-0.3,0.1-0.7,0.2-1c0.5-0.5,0.3-1.3,0.8-1.8c-0.4,2.1-0.7,4.1-1.1,6.2C935.4,332.4,935.4,332.6,935.5,332.8z"/>
	<path class="st15" d="M957.6,358.6c0.2,0.3,0.3,0.6,0.2,1.1C957.5,359.3,957.5,359,957.6,358.6z"/>
	<path class="st14" d="M935.7,328.8c0.3,0.3,0.2,0.6-0.1,0.9C935.5,329.3,935.6,329,935.7,328.8z"/>
	<path class="st10" d="M959.5,368.4c-2.2,0.7-4.4,1.5-6.6,2.3c-0.7,0.1-1.3,0.3-2,0.3c-0.6,0-1.1,0.1-1.6,0.3
		c-0.8,0.3-1.7,0.2-2.5,0.2c-1,0.1-2.1,0.2-3.1,0.4c-1.4,0-2.8,0.3-4.1,0.7c-1.4,0.4-2.8,0.8-4.2,1.4c-0.3,0.1-0.6,0.3-0.9-0.1
		c-0.2-0.9-0.4-1.9,0.3-2.7c4.9-1.8,9.7-3.6,14.6-5.5c2.7-1,5.4-2.1,8.1-3.1c0.5-0.2,0.6-0.2,0.8,0.4
		C958.5,364.8,959,366.6,959.5,368.4z"/>
	<path class="st23" d="M934.6,371.2c0,0.9-0.1,1.8-0.1,2.7c-0.2,0.6-0.9,0.5-1.3,0.8c-0.9,0.3-1.8,0.4-2.8,0.5
		c-0.7,0.1-1.2-0.2-1.2-1c0-0.5,0.5-0.8,0.4-1.3c0.1-0.1,0.1-0.1,0.2-0.2C931.5,372.4,933,371.6,934.6,371.2z"/>
	<path class="st24" d="M938.6,408.5c-0.1-0.2-0.2-0.3-0.3-0.5c-1.1-1.3-1.2-2.7-0.1-4.2c-1.4-0.2-2.8,0.1-4.1-0.1
		c0.1-0.6,0.7-0.6,1.1-0.8c0.3-0.2,0.7-0.2,1-0.3c0.4-0.1,0.7-0.3,1.1-0.5c0.2,0,0.3-0.1,0.4-0.2c0.6-0.3,1-0.7,1.7-0.6
		s1,0.5,1.1,1.1c0.1,0.5,0.2,0.9,0.2,1.4c0.5,1.4,0.6,2.8,0.9,4.2c0.1,0.3,0.1,0.7-0.1,1c-0.9,0.6-1.8,0.6-2.4,0.2
		C939.4,408.8,939,408.6,938.6,408.5z"/>
	<path class="st25" d="M939.1,409.3c0.8,0.1,1.5-0.1,2.3-0.3c0.3-0.4,0.7-0.6,1.2-0.6c2.8-0.5,5.4-1.3,8.2-2c0.2,0,0.3-0.1,0.5-0.2
		c1.4-0.5,2.9-0.9,4.3-1.3c0.1,0,0.2,0.1,0.3,0.2c0,0.1,0,0.2-0.1,0.2c-0.6,1-1.8,0.6-2.6,1.2c-0.1,0.1-0.4,0-0.4,0.1
		c-0.3,1.5-1.5,0.7-2.3,0.8c-0.5,0-0.9,0.2-1.3,0.4c0,0.2,0.5,0.1,0.3,0.5c-0.1,0.2-0.3,0.3-0.5,0.2c-0.2-0.1-0.3-0.2-0.5-0.2
		c-1.2-0.2-1.4,0-1.2,1.2c-0.1,0.1-0.2,0.1-0.3,0.2c-0.3-0.6-1-0.5-1.5-0.5c-1.6,0.1-3.2,0.5-4.8,0.8c-0.4,0.1-0.8,0.2-1.2,0.3
		c-0.3,0.1-0.8,0.3-0.9,0C938.3,409.8,938.8,409.5,939.1,409.3z"/>
	<path class="st21" d="M963.5,385.5c1.1,4.6,2.2,9.3,3.4,13.9c0.1,0.4,0,0.7-0.4,0.9c-1,0.5-2,1-3,1.5c-0.4,0.2-0.8,0.1-1.1,0
		c-4.4-1.1-8.8-2.2-13.2-3.3c-0.3,0.2-0.6,0.1-0.9,0c-2-0.9-4-1.7-5.9-2.6c-0.6-0.3-1.2-0.3-1.8-0.2c-0.9,0.2-1.7,0.3-2.6,0.2
		c-0.6-0.3-1.2-0.4-1.8-0.5c-1.8-0.2-3.5-0.7-5.2-1.1c-0.4-0.1-0.8-0.2-1.2-0.5c-0.2-0.2-0.2-0.4-0.1-0.6c0.4-0.9,0.9-1.8,1.5-2.7
		c0.1-0.2,0.2-0.3,0.5-0.3c0.9,0,1.8-0.4,2.7-0.5c0.2,0.1,0.4,0,0.6,0.2c1.4,1.4,3.2,1.3,4.9,1.2c2.6-0.1,5.2-0.7,7.7-1.3
		c4.8-1.1,9.4-2.7,14.1-4.1C962.3,385.5,962.9,385,963.5,385.5z"/>
	<path class="st10" d="M963.5,385.5c-4.8,1.4-9.5,3-14.4,4.3c-3.3,0.8-6.6,1.7-10.1,1.8c-0.7,0-1.5,0-2.2-0.2
		c-1-0.2-1.9-0.7-2.5-1.6c8.3-1.9,16.5-4.2,24.7-6.4c1.1,0,2.3,0.4,3.4,0.2c0.2,0,0.4,0,0.5,0.2
		C963.2,384.3,963.4,384.9,963.5,385.5z"/>
	<path class="st26" d="M955.8,405.1c-0.1,0-0.2,0-0.4,0c-0.8,0.2-1.6,0.1-2.4-0.1c-1.9-0.5-3.8-0.8-5.7-1.5
		c-1.6-0.6-3.2-1.3-4.6-2.3c-0.7-0.5-1.5-0.8-2.4-0.7c-0.3-0.1-0.5-0.2-0.5-0.5c-0.2-1-0.6-1.8-0.9-2.7c-0.1-0.3-0.1-0.5,0-0.8
		c0.9-0.8,2-0.7,3-0.5c1.3,0.2,2.5,0.8,3.7,1.3c3,1.3,6.1,2.7,9.1,4c1.3,0.6,2.7,1.2,4.1,1.7c0.3,0.1,0.6,0.3,0.4,0.7
		c-0.7,0.4-1.5,0.6-2.2,1C956.6,404.9,956.2,405.1,955.8,405.1z"/>
	<path class="st10" d="M953.4,383.2c-6.3,1.7-12.7,3.4-19,5.2c-0.3-0.2-0.4-0.5-0.4-0.9c0-0.8,0.1-1.6,0.2-2.4
		c0.5-1.5,1.4-2.9,2.2-4.3c0.1-0.1,0.2-0.2,0.4-0.2c1.5-0.2,3,0.4,4.5,0.6c3.5,0.4,7,1.1,10.5,1.4c0.4,0,0.8,0.2,1.3,0.3
		C953.2,382.8,953.4,382.9,953.4,383.2z"/>
	<path class="st27" d="M959.1,403.7c-0.1-0.1-0.2-0.3-0.3-0.4c-2.8-1.1-5.5-2.4-8.3-3.5c-1.7-0.7-3.3-1.4-5-2.1
		c-1-0.4-2-0.9-3.1-1.2c-1.2-0.4-2.3-0.4-3.5,0.3c-0.7-0.1-1.1-0.4-0.9-1.2c0.7,0.1,1.3,0,1.9-0.2c1.4-0.5,2.5,0,3.6,0.6
		c1.8,0.9,3.7,1.7,5.6,2.6c2.7,1.3,5.3,2.6,8.1,3.7c0.5,0.2,1.1,0.4,1.6,0.6c0.3,0.1,0.8,0.1,0.8,0.6
		C959.6,403.5,959.4,403.6,959.1,403.7z"/>
	<path class="st28" d="M937.6,379.2c-0.3,0.5-0.6,1-0.9,1.5c-0.8,1.4-1.6,2.9-2.3,4.4c-0.3,0.7-0.4,1.6-0.8,2.3
		c-0.4,0.6-0.7,1.2-1.3,1.6c-0.2,0.4-0.4,0.8-0.6,1.1c-0.6,1.1-1.3,2.2-1.9,3.4c0.1,0.4,0,0.7-0.4,0.9c-0.2,0-0.3-0.1-0.3-0.2
		c-0.1-0.2-0.1-0.5,0.1-0.7c0.5-1.1,1.1-2.2,1.7-3.2c0.1-0.4,0.6-0.6,0.6-1.1c0.8-1.6,1.7-3.2,2.5-4.8c0.9-1,1.1-2.5,2-3.5
		c0.2-0.7,0.7-1.4,0.8-2.2c0-0.2,0.1-0.4,0-0.7c0.1-0.2,0.1-0.5,0.1-0.7c0.4-1.2,0.7-1.4,1.5-0.7c0.2,0.5-0.3,0.7-0.5,1.1
		c-0.1,0.2-0.2,0.3-0.3,0.5c0.1-0.2,0.2-0.3,0.3-0.5c0.2-0.1,0.3-0.1,0.5,0.1C938.6,378.4,938.1,378.8,937.6,379.2z"/>
	<path class="st10" d="M963.1,383.7c-0.7,0.4-1.4,0.3-2.1,0.2c-0.4-0.1-0.8-0.2-1.2-0.1c-0.3,0.1-0.5-0.2-0.6-0.5
		c0.9-0.3,1.9-0.5,2.8-0.9c0.7-0.3,1,0,1,0.6C963,383.3,963,383.5,963.1,383.7z"/>
	<path class="st29" d="M932.3,389c0.7-1.3,1.4-2.6,2.1-3.9c0,1.1,0,2.2,0,3.3C933.7,388.6,933,388.8,932.3,389z"/>
	<path class="st10" d="M960.6,369.2c0.6-0.2,1.1-0.2,1.7-0.2c0.2,0,0.5,0,0.6,0.3s-0.1,0.4-0.2,0.6c-0.5,0.5-1,1-1.5,1.5
		C961,370.6,960.8,369.9,960.6,369.2z"/>
	<path class="st30" d="M980,392.2c1.1-1.1,2.3-2,3.8-2.6c0.2-0.1,0.5-0.2,0.7,0.1c0.2,0.3,0.1,0.5-0.1,0.8c-0.5-0.5-1-0.3-1.5-0.1
		C981.9,390.9,981,391.6,980,392.2z"/>
	<path class="st11" d="M959.7,403.4c-0.8-0.4-1.6-0.8-2.5-1.2c1.1,0.3,2.2,0.5,3.3,0.8C960.3,403.3,960,403.2,959.7,403.4z"/>
	<path class="st25" d="M954.9,407.2c-0.2,0.1-0.4,0.1-0.6,0.2c-0.1-0.2-0.4-0.3-0.4-0.7C954.4,406.7,954.6,407.1,954.9,407.2z"/>
	<path class="st20" d="M955.8,405.1c0.4-0.2,0.7-0.4,1.2-0.4c-0.3,0.4-0.8,0.4-1.2,0.6C955.8,405.2,955.8,405.2,955.8,405.1z"/>
	<path class="st31" d="M950.7,372.3c-0.4,0.1-0.8,0.1-1.1,0.5c-0.2,0.3-0.5,0.2-0.8,0.2c-0.6-0.2-1.1,0.1-1.6,0.2
		c-1.1-0.1-1.9,0.4-2.9,0.8c-1.6,0.6-3.1,1.3-4.7,1.9c-0.8,0.3-1.6,0.1-2.3,0.3c-0.9,0.2-1.8,0.7-2.7,0.9c-1.5,0.7-2.9,1.5-4.4,2.2
		c-0.4,0.2-0.8,0.4-1.1,0c0-0.9-0.1-1.8,0.2-2.6c0.6-0.6,1.5-0.8,2.2-1.2c3-1.2,6-1.9,9.1-2.7c1.9-0.5,3.8-0.7,5.4-1.1
		c-0.4,0-1,0.2-1.7,0.3c-0.4,0.1-0.7,0-0.8-0.4v-0.1c1.3-0.3,2.6-0.4,4-0.4s2.6-0.8,4-0.6c0.5,0.1,0.9,0.1,1.4,0.2
		C952.2,371.3,951.3,371.6,950.7,372.3z"/>
	<path class="st32" d="M918.6,373.7c-1.1-0.2-2.2-0.5-3.2-0.7c-0.9-0.2-1.6-0.7-2.3-1.3c-0.5-0.5,0.1-0.7,0.2-1.1
		c-0.3-0.3-0.8-0.4-1.1-0.7c-0.4-0.3-1-0.6-0.4-1.3c0.1-0.1-0.2-0.3,0-0.5c0.4-0.4-0.3-0.3-0.2-0.6c0.4-0.2,1,0.1,1.5-0.2
		c-0.3-0.5-1.1-0.7-1.1-1.4c0.2-0.2,0.7,0.7,0.8-0.1c0,0,0.1,0,0.1,0.1c0.9,0.7,2,0.6,3,0.4c0.5-0.1,1,0,1.5,0.1
		c1.6,0.3,3.2,0.5,4.7,1.1c1.5,0.5,2.2,1.5,2.1,2.8c-0.1,0.3-0.4,0.4-0.7,0.4c-0.4,0-0.7,0.3-0.8,0.6c-0.7,0.8-1.4,0.4-2.1,0
		c-0.2-0.2-0.4-0.5-0.8-0.4c-0.3,0.1-0.3,0.5-0.3,0.8c-0.1,0.3,0,0.6,0,0.9C919.6,373.4,919.2,373.7,918.6,373.7z"/>
	<path class="st33" d="M924.7,372.2c0.4,0.1,0.2,0.4,0.1,0.7c-0.2,0.4-0.4,0.9-0.6,1.3c-0.4,0.6-0.8,0.6-1.1,0
		c-0.1-0.2-0.2-0.5-0.2-0.8c-0.1-0.4-0.4-0.6-0.8-0.7c-0.4-0.1-0.7,0.1-0.8,0.5c-0.3,1-0.7,1.9-0.1,2.9c0.1,0.1,0.1,0.3,0,0.4
		c-0.4,0.5-0.9,0.4-1.3,0.1c-0.7-1.2-0.6-2.5,0.1-3.7c0.3-0.6,0.3-1.3,0.8-1.7c0.1-0.1,0.2-0.4,0.5-0.1c0.3,0.4,0.8,0.5,1.3,0.1
		c0.6,0.2,1.3-0.2,1.8,0.2C924.6,371.8,924.2,372.2,924.7,372.2z"/>
	<path class="st34" d="M924.4,371.6c-0.5,0.1-0.9,0.4-1.4,0.2c-0.3-0.1-0.5-0.1-0.4-0.5c0-0.6,0.2-1,0.9-0.9c0.3,0,0.5-0.1,0.8-0.1
		C924.5,370.8,924.4,371.2,924.4,371.6z"/>
	<path class="st35" d="M926.6,375.4c0.4-0.1,0.7-0.2,1.1-0.3c0.1-0.1,0.3-0.1,0.4-0.1c0.4,0.1,0.5,0.4,0.5,0.8
		c0.1,1.5,0.1,2.9-0.3,4.4c-0.1,0.4-0.4,0.7-0.8,0.8c-1.6,0.4-2,1.5-1.8,3c0.1,0.5-0.1,1,0.2,1.5c0.2,1.4,0,2.7,0.4,4.1
		c0,0.9,0.4,1.8,0.5,2.8c-0.1,0.9-0.3,1.8-0.9,2.6c-1,1.2-2.3,1.2-3.6,1c-1.5-0.2-3-0.6-4.3-1.2c-0.4-0.2-0.8-0.4-0.9-0.9
		c-0.9-1.8-1.7-3.7-2.5-5.6c0.6-0.2,0.7,0.3,1,0.6c0.7,1.3,1.5,2.5,2.7,3.5c0.1,0.1,0.2,0.2,0.2,0.2c1.2,1,2,0.8,2.3-0.8
		c0.3-1.2,0.2-2.4,0.2-3.6c-0.1-2.3-0.4-4.5-0.8-6.8c-0.1-0.8-0.6-1.2-1.3-1.3c-1.7-0.2-3.3,0-5,0.2c-0.5,0.1-0.6,0.5-0.6,0.9
		c0.1,1.2,0.3,2.4,0.7,3.6c0.2,0.6,0.4,1.1,0.5,1.7c0.1,0.3,0.2,0.7-0.2,0.9c-0.8-1.7-1.7-3.4-2.7-5c-0.9-1.5-0.2-2.9,0.5-4.3
		c0.1-0.2,0.3-0.3,0.5-0.3c0.9-0.4,1.8-0.7,2.8-1.1c1.6-0.6,3,0.3,4.4,0.7c1.2,0.3,2.4,0.2,3.5-0.2c1-0.4,1.8-0.9,2.8-1.3
		C926.3,375.9,926.5,375.6,926.6,375.4z"/>
	<path class="st36" d="M914.2,387.5c0.1-0.9-0.4-1.6-0.7-2.3c-0.4-1.4-0.7-2.8-0.8-4.3c0-0.5,0.1-0.8,0.6-0.9
		c1.9-0.3,3.9-0.6,5.8-0.2c0.7,0.1,1.1,0.5,1.2,1.2c0.7,3.2,1.1,6.5,0.9,9.8c0,0.6-0.2,1.3-0.4,1.9c-0.2,0.8-0.9,1-1.6,0.7
		c-1.6-0.7-2.5-2-3.5-3.4c-0.4-0.6-0.6-1.4-1.3-1.9C914.5,388,914.4,387.7,914.2,387.5z"/>
	<path class="st37" d="M917,393.8c1.8,1,3.7,1.5,5.7,1.8c2.7,0.4,3.7-1.5,3.7-3.4c0.2,0,0.4,0,0.5,0.1c0.6,0.7,1,1.5,1.1,2.3
		c-1.2,2.2-3.5,3.3-6.1,2.8c-1-0.2-1.9-0.4-2.8-0.7c-0.6-0.1-0.9-0.6-1.4-0.9c0,0-0.1,0-0.1-0.1C917.3,395.2,916.7,394.6,917,393.8z
		"/>
	<path class="st38" d="M926.6,375.4c0.3,0.3,0.5,0.6-0.1,0.8c-1,0.4-1.9,0.9-2.9,1.4c-1.8,0.9-3.6,0.5-5.4-0.2
		c-0.8-0.3-1.5-0.6-2.3-0.2c-0.6,0.3-0.4-0.3-0.6-0.4c0.2-0.1,0.4-0.2,0.7-0.4c0.1-0.9,0.4-1.2,1.4-1.3c0.9,0.3,1.9,0.5,2.6,1.3
		c0.4,0.1,0.8,0.2,1.2,0c0.5-0.7,1.1-0.6,1.8-0.4C924.2,375.8,925.4,375.6,926.6,375.4z"/>
	<path class="st39" d="M917.7,395.9c1.3,0.4,2.5,0.8,3.8,1c1.7,0.4,3.4,0.2,4.9-0.9c0.6-0.4,0.8-1.2,1.5-1.6
		c0.2-0.1,0.3-0.1,0.5-0.1c0.3-0.1,0.5-0.4,0.8-0.3c0,0.1,0.1,0.2,0.1,0.3c0.2,0.3,0.1,0.5,0,0.7c-0.3,0.7,0.1,1.5-0.2,2.2
		c-0.1,0.3,0,0.7-0.1,1.1c-1.1,2-2.9,2.5-5,2.3c-1.3-0.1-2.4-0.5-3.4-1.3C919.4,398.4,918.2,397.4,917.7,395.9z"/>
	<path class="st40" d="M928.7,398.2c0-0.4,0.1-0.7,0.1-1.1c0.3-0.1,0.4,0,0.6,0.2c0.4,0.8,0.1,1.6,0.2,2.5c0.4-0.3,0.6-0.6,0.8-1
		c0.5-0.8,1.2-1.4,1.9-1.9c1.7-1,3.7-0.7,5.3,1c1,0.9,1.8,2,1.7,3.4c0,0.1-0.1,0.1-0.2,0.2c-0.5,0.2-1.1,0.4-1.6,0.6
		c-0.3-0.1-0.3-0.4-0.4-0.7c-0.1-0.7-0.4-1.3-0.7-1.8c-0.8-1.2-2.6-1.4-3.7-0.3c-0.6,0.6-1,1.4-1.4,2.1c-0.6,1.3-0.9,1.4-2.2,0.8
		c-0.7-0.3-1.4-0.4-2.1-0.1c-0.2,0.1-0.4,0.1-0.6,0.2c-1.7,0.5-3.3,0.4-4.5-1.2c-0.3-0.3-0.5-0.7-0.8-1c0.3-0.3,0.6-0.1,0.8,0
		c1.5,0.5,3.1,0.7,4.7,0.1C927.8,400,928.6,399.4,928.7,398.2z"/>
	<path class="st41" d="M922.1,401.4c1.5,1.2,3.2,1.4,4.9,0.7c1-0.4,1.9-0.3,2.8,0.2c0.6,0.4,0.9,0.3,1.2-0.4
		c0.5-1.3,1.1-2.5,2.3-3.2c1.4-0.8,2.9-0.4,3.7,1.1c0.4,0.8,0.7,1.6,0.7,2.5c-0.1,0.1-0.3,0.2-0.4,0.1c-0.4-0.1-0.5-0.4-0.6-0.7
		c-0.1-0.3-0.2-0.7-0.3-1c-0.6-1.3-1.9-1.5-2.8-0.4c-0.7,0.9-1.2,1.9-1.6,2.9c-0.2,0.5-0.4,0.9-0.8,1.2c-1.4,0.4-2.8,0.4-4.2-0.2
		c-0.8-0.3-1.6-0.6-2.5-0.6c-0.4,0-0.6-0.2-0.9-0.4C923.1,402.6,922.5,402,922.1,401.4z"/>
	<path class="st42" d="M931.2,404.4c0.4-1.5,1-2.9,2-4.2c1.2-1.5,2.6-1.4,3.5,0.3c0.3,0.6,0.5,1.2,0.6,1.9c-0.3,0.3-0.6,0.4-1,0.5
		c-0.6-0.1-0.6-0.7-0.7-1.1c-0.2-0.3-0.3-0.7-0.7-0.7s-0.7,0.3-0.8,0.6c-0.2,0.4-0.5,0.9-0.6,1.3c-0.2,0.5-0.5,0.8-0.8,1.1
		C932.1,404.3,931.6,404.4,931.2,404.4z"/>
	<path class="st43" d="M932.5,404.1c0.3-1,0.7-2,1.3-2.9c0.3-0.4,0.6-0.7,1.1-0.7s0.8,0.4,1,0.9s0.3,1,0.5,1.5
		c-0.7,0.4-1.5,0.5-2.2,0.9C933.5,403.9,933,404,932.5,404.1z"/>
	<path class="st44" d="M928.7,398.2c0.1,1.2-0.4,1.9-1.5,2.4c-1.8,0.8-3.6,0.7-5.3-0.1c-0.2-0.1-0.4-0.2-0.6-0.2
		c-0.3-0.3-0.5-0.6-0.8-1c1.2,0.3,2.4,0.9,3.7,0.9C926.1,400.3,927.7,400,928.7,398.2z"/>
	<path class="st45" d="M917.2,375.4c0.3-0.3,0.6-0.7,0.9-1c0.2-0.2,0.3-0.4,0.4-0.7c0.5-0.3,0.9-0.6,0.7-1.3c0-0.2,0-0.5,0-0.7
		c0-0.4,0-0.9,0.5-1.1s0.8,0.3,1,0.7c0,0.7-0.3,1.4-0.6,2c-0.6,1-0.4,2.1-0.2,3.2C919,376.3,918.1,375.9,917.2,375.4z"/>
	<path class="st46" d="M942.4,342.8c-0.8,0.2-0.8-0.7-1.2-0.9c-0.2,0.2-0.1,0.4,0,0.6c0.2,0.6-0.2,0.8-0.6,1
		c-0.5,0.2-0.6-0.1-0.8-0.5c-0.1-0.1-0.2-0.2-0.2-0.3c-0.4-0.9-0.9-1.9-1.3-2.9c-0.1-0.2-0.5-0.6,0.1-0.9c0.4-0.2,0.7,0.1,0.9,0.4
		c0.3,0.6,0.6,1.1,0.9,1.7c0.1,0.2,0.2,0.5,0.3,0.8c0.4-0.4,0-1,0.4-1.1c0.5-0.1,0.4,0.6,0.8,0.7c-0.2-0.9-0.5-1.8-0.7-2.7
		c-0.1-0.4-0.3-0.8,0.3-0.9c0.5-0.1,0.6,0.2,0.8,0.6c0.4,1,0.6,2.1,0.9,3.1C943.2,342.2,943.1,342.6,942.4,342.8z"/>
	<path class="st47" d="M946.3,340.7c0,0.3,0.6,0.6,0,0.9s-0.8,0-1-0.6c-0.3-1.1-0.8-2.2-1.2-3.3c-0.1-0.2-0.4-0.6,0.1-0.8
		c0.4-0.2,0.6,0.1,0.7,0.4c0.2,0.7,0.9,1,1.5,1.6c0-0.8-0.4-1.3-0.6-1.9c-0.1-0.2-0.4-0.6,0.1-0.7c0.3-0.1,0.5,0.2,0.7,0.4
		c0.6,1.1,1.2,2.3,1.8,3.4c0.1,0.3,0.4,0.6,0,0.8c-0.4,0.2-0.8,0.3-1.1-0.2c-0.1-0.1-0.1-0.3-0.2-0.5c-0.3-0.2-0.6-0.4-0.8-0.7
		C946.4,339.9,946.3,340.3,946.3,340.7z"/>
	<path class="st48" d="M948,336c1.5,0.4,2.7,2.7,2.2,4.1c-0.2,0.5-0.5,0.7-1,0.7s-0.6-0.3-0.7-0.6c-0.5-1.1-0.9-2.2-1.3-3.3
		c-0.1-0.3-0.3-0.5-0.1-0.8C947.4,335.8,947.7,335.9,948,336z"/>
	<path class="st49" d="M942.9,337.4c0.3,0.1,0.3,0.2,0.4,0.4c0.5,1.2,1,2.3,1.6,3.5c0.3,0.5,0,0.7-0.4,0.8c-0.5,0.2-0.6,0-0.8-0.4
		c-0.4-1.2-0.8-2.4-1.2-3.6c-0.1-0.2-0.2-0.3,0-0.5C942.6,337.5,942.8,337.5,942.9,337.4z"/>
	<path class="st10" d="M946.3,340.7c-0.4-0.6-0.7-1.3-1-2.2c0.7,0.6,1.4,1,1.6,1.8C946.7,340.4,946.5,340.6,946.3,340.7z"/>
	<path class="st10" d="M952.4,343.5c-0.4-0.2-0.7-0.5-0.5-1c0.1-0.1,0.2-0.2,0.3-0.2c0.2,0,0.3,0.1,0.3,0.2c0.1,0.2-0.1,0.2-0.2,0.3
		C951.7,343.2,952.7,343.2,952.4,343.5z"/>
	<path class="st50" d="M942.5,336.2c0.2,0.1,0.4,0.2,0.4,0.5s-0.3,0.4-0.5,0.3c-0.3-0.1-0.4-0.3-0.4-0.6
		C942.1,336.2,942.3,336.2,942.5,336.2z"/>
	<path class="st48" d="M942.8,324.3c-0.2-0.1-0.3-0.2-0.3-0.3c0-0.1,0-0.3,0-0.4c-0.9-1,0.3-1.5,0.6-2.2c0.1-0.1,0.3-0.2,0.3-0.2
		c0.5,0.4,1.1,0.8,1.4,1.4c0.1,0.3-0.2,1-0.5,1.3C943.9,324.2,943.2,324,942.8,324.3z"/>
	<path class="st15" d="M929.2,374.1c0-0.2,0.1-0.5,0.1-0.7c0.1-0.2,0.2-0.3,0.3-0.5c0.1,0.5-0.1,0.9-0.2,1.4c0,0.2,0,0.4-0.1,0.6
		c-0.1,0.1-0.2,0.1-0.2,0C928.9,374.6,929.3,374.4,929.2,374.1z"/>
	<path class="st31" d="M933.2,374.3c0.4-0.2,0.9-0.3,1.3-0.5c1.2-0.4,2.5-0.9,3.7-1.3c1.7-0.6,3.5-0.9,5.3-1.1l0,0
		c0,0.5-0.4,0.6-0.8,0.7c-2.3,0.4-4.5,1.3-6.8,1.8c-0.7,0.1-1.3,0.5-2,0.7C933.6,374.8,933.2,374.9,933.2,374.3z"/>
	<path class="st51" d="M933.2,374.3c0.7,0.4,1.4-0.2,2-0.3c2.6-0.7,5.1-1.8,7.8-2.2c0.2,0,0.4-0.2,0.5-0.3c0.5,0.3,1.1,0.2,1.6,0
		c0.7-0.2,1.5-0.2,2.3,0c-0.5,0.4-1.1,0.3-1.6,0.4c-3,0.7-6,1.4-9,2.1c-2.1,0.5-3.9,1.4-5.9,2.2c-0.4,0.2-0.9,0.4-1.4,0.4
		c-0.6-0.5-0.6-0.9-0.3-1.6c0.1-0.2,0.1-0.5,0.2-0.7c0,0.5,0.2,0.6,0.7,0.5C931.2,374.7,932.2,374.6,933.2,374.3z"/>
	<path class="st11" d="M939.3,401.6v-0.1c0.2-0.5,0.4-1,0.9-1.2c0.6-0.2,1.2-0.4,1.9,0c4,2.8,8.6,4,13.4,4.8c-1.4,0.6-2.8,1-4.2,1.4
		c-3.3-0.3-6.4-1.2-9.6-2c-0.4-0.1-0.9-0.2-1.2-0.5c-0.1-0.4-0.2-0.9-0.3-1.3C940,402.2,939.8,401.8,939.3,401.6z"/>
	<path class="st11" d="M940.4,404.1c0.3-0.2,0.7,0,1,0c1.8,0.4,3.6,0.9,5.4,1.3c1.2,0.3,2.3,0.5,3.5,0.7c0.4,0.1,0.7,0.2,1,0.5
		c-3.2,1.1-6.5,1.9-9.9,2.5C941,407.4,940.7,405.7,940.4,404.1z"/>
	<path class="st52" d="M940.2,400.3c0,0.6-0.4,1-0.9,1.2c-0.3-1.3-0.9-2.3-1.7-3.3c-0.2-1.1-1-1.9-1.3-2.9c0-0.1,0.1-0.1,0.2-0.2
		c0.6,0,1.2-0.1,1.7,0.4c0.3,0.4,0.6,0.8,0.9,1.2C939.6,397.8,940.1,399,940.2,400.3z"/>
	<path class="st53" d="M936.4,395.2v0.1c-0.9,0.7-1.9,1.2-3.1,1c-1.1-0.2-2.2-0.4-3.2-0.7c-0.4-0.1-0.8-0.2-0.9-0.6
		c0.1-0.2,0.2-0.4,0.3-0.6c0.1-0.3,0.3-0.5,0.4-0.8C932,394.1,934.2,394.6,936.4,395.2z"/>
	<path class="st54" d="M942.3,375.8c-1.4,0.6-2.8,1.2-4.2,1.9c-0.1,0-0.2,0.1-0.3,0.1s-0.1-0.2-0.1-0.2c-0.1-0.4,0.3-0.5,0.5-0.7
		c0.1-0.4,0.5-0.6,0.8-0.7c2.7-0.9,5.3-2.3,8-3.2c0.1,0,0.2-0.1,0.3-0.1c0.5-0.2,1-0.3,1.5,0.2C946.7,373.9,944.5,374.9,942.3,375.8
		z"/>
	<path class="st21" d="M934.3,384.3c-0.9,1.6-1.7,3.3-2.6,4.9c-0.8,0.8-1.8,0.9-2.9,1.1c-0.7,0.1-1,0-1-0.8c0-1,0-2.1,0-3.1
		c0-0.2,0-0.4,0.1-0.5c1.1-1.6,1.9-3.5,3.5-4.6c0.5-0.3,1-0.8,1.2-1.4c0.6-0.4,1.1-1,1.9-0.6c0.4,0.4,0.2,0.9,0.2,1.4
		C934.9,381.9,934.8,383.1,934.3,384.3z"/>
	<path class="st55" d="M947.4,372.8c-3.1,1.3-6.1,2.6-9.2,4c-0.2-0.2-0.3-0.5-0.6-0.4c-0.4,0.2-0.3,0.6-0.4,0.9
		c-0.7,0.8-2.1,1.4-2.9,1.2c-0.4-0.6-0.3-1.2,0.2-1.7c1.2-0.5,2.4-0.9,3.7-1c1.8-0.2,3.5-1,5.2-1.7c1-0.4,2-0.8,3-1.2
		C946.6,372.8,947,372.7,947.4,372.8z"/>
	<path class="st56" d="M928.1,386.4c0,1.1,0,2.2,0,3.4c0,0.5,0.1,0.5,0.5,0.4c1-0.3,2-0.6,3.1-0.9c-0.2,0.4-0.4,0.7-0.6,1.1
		c-0.5,0.4-1,0.6-1.6,0.6c-0.8,0.1-1,0.4-0.6,1.2c0.2,0.4,0.6,0.7,0.5,1.2c-0.1,0.2-0.1,0.4-0.2,0.6c-0.3,0.3-0.2,0.9-0.9,0.8
		c-1.4-1.8-1-3.8-1-5.8c0-0.8,0.2-1.6,0.4-2.4C927.8,386.4,927.9,386.3,928.1,386.4z"/>
	<path class="st57" d="M929.4,393.5c-0.9-0.5-1-1.5-1.2-2.4c-0.1-0.4,0.2-0.3,0.4-0.4c0.8-0.1,1.7-0.2,2.5-0.3
		C930.6,391.4,930.1,392.5,929.4,393.5z"/>
	<path class="st10" d="M934.5,380.6c0-0.4,0-0.8,0-1.3c-0.1-0.2,0-0.4,0.2-0.5c0.7-0.3,1.3-0.6,2-0.9c0.1-0.1,0.3,0,0.4,0.1
		c0.2,1.1-0.3,1.9-0.9,2.8C935.5,381.2,935,381.1,934.5,380.6z"/>
	<path class="st10" d="M934.5,380.6c0.6,0,1.2,0.1,1.7,0.3c-0.6,1.2-1.2,2.3-1.8,3.5C934.4,383.1,934.4,381.8,934.5,380.6z"/>
	<path class="st58" d="M937,378.1c-0.9,0.4-1.7,0.8-2.6,1.3c-0.6,0.1-1.1,0.5-1.6,0.7c-0.3,0.3-0.6,0.6-0.9,0.2
		c-0.3-0.4,0-0.6,0.3-0.8c0.1-0.1,0.2-0.1,0.3-0.2c0.6-0.4,1.1-0.8,1.9-0.7c0.9-0.4,1.8-0.8,2.7-1.1
		C937.1,377.6,937.1,377.8,937,378.1z"/>
	<path class="st59" d="M937.7,377.5c0,0.1,0.1,0.1,0.1,0.2c-0.1,0.4-0.2,0.8-0.5,1.2C937.2,378.3,937.4,377.9,937.7,377.5z"/>
	<path class="st60" d="M934.5,378.5c-0.5,0.4-1.1,0.6-1.6,0.8c-1.1,0.1-2.2,0.4-2.7,1.6c-0.3,0.2-0.5,0.3-0.8,0.5s-0.6,0.4-0.9,0
		c-0.2-0.5-0.1-1,0.1-1.5c0.1-0.4,0.4-0.6,0.8-0.5c1.7-0.9,3.4-1.8,5.1-2.6C934.6,377.4,934.3,377.9,934.5,378.5z"/>
	<path class="st61" d="M929.3,379.4c-0.2,0.2-0.4,0.4-0.6,0.6c-0.1,0.1-0.1,0.3-0.2,0.4c-0.2,0.1-0.4,0.1-0.5-0.1
		c0.2-1.4,0.3-2.7,0.2-4.1c0-0.3,0-0.7-0.2-1c0.3-0.6,0.6-0.6,1.1-0.3c0.1,0,0.1,0.1,0.2,0.1c0.1,0.5,0.2,1.1,0.3,1.6
		C929.6,377.5,929.6,378.5,929.3,379.4z"/>
	<path class="st62" d="M923,376.1c-0.6,0.2-1.2,0.4-1.8,0.4c-0.7-0.3-0.8-0.9-0.7-1.5s0.2-1.2,0.4-1.8c0.2-0.7,0.6-1,1.3-0.8
		c0.6,0.1,1.4,0.1,1.2,1.1c0,0.1,0,0.2,0,0.3c0,0.8,0.2,1,0.9,0.5c0.2,0.5,0.2,0.7-0.4,1C923.6,375.3,922.9,375.4,923,376.1z"/>
	<path class="st63" d="M929.1,374.9c-0.4,0.1-0.7,0.2-1.1,0.3c-0.1,0-0.2,0-0.4,0c0.2-0.8,1-0.7,1.5-1
		C929.2,374.3,929.2,374.6,929.1,374.9z"/>
	<path class="st64" d="M930.1,380.7c0.2-1.3,1.7-2,2.8-1.4c-0.2,0.3-0.7,0.3-0.8,0.8c0.3,0.3,0.5-0.1,0.8-0.1
		c-0.1,0.7-0.5,1.2-1,1.6c-1.8,1.2-2.6,3.1-3.7,4.8c-0.2,0-0.2,0.2-0.3,0.4c-0.3,0.7-0.5,1.5-1,2.1c-0.3,0.3-0.4,0.7-1,0.7
		c-0.3-1.4-0.3-2.7-0.4-4.1c0.1-0.4,0.2-0.9,0.5-1.2c0.7-0.5,1.4-1,1.9-1.8c0.4-0.5,1-0.7,1.5-1.1
		C929.7,381.2,929.9,381,930.1,380.7z"/>
	<path class="st65" d="M925.4,384c0.9-0.9,2-1.6,2.9-2.4c0.1-0.1,0.2-0.1,0.3-0.1c0.5-0.2,1-0.5,1.4-0.7c0.2,0.4-0.2,0.6-0.4,0.8
		c-0.5,0.4-1,0.7-1.5,1.1c-0.6,0.6-1.3,1-1.8,1.8c-0.3,0.4-0.6,0.7-0.9,1.1C925.3,385,925.4,384.5,925.4,384z"/>
	<path class="st35" d="M914.8,386c-0.5-1.2-0.6-2.5-0.7-3.8c0-0.4,0.1-0.6,0.5-0.6c1.3-0.3,2.5-0.4,3.8-0.3c0.6,0,0.9,0.3,1,0.9
		c0.5,2.7,0.8,5.5,0.4,8.2c0,0.3-0.1,0.5-0.3,0.8c-0.2,0.5-0.6,0.6-1.1,0.4c-0.6-0.2-1-0.6-1.4-1.1C916,389.2,915.2,387.7,914.8,386
		c1.2,0.1,2,0.8,2.3,2.3c0.6-0.8,0.8-0.8,1.6,0.1c-0.1-0.8-0.6-1.6-0.4-2.4c0-0.1,0-0.3-0.2-0.3c-1.1-0.2-1.2-1.2-1.4-2
		c0-0.1,0-0.2-0.1-0.2C916.3,386,916.3,386,914.8,386z"/>
	<path class="st41" d="M929.3,397.5c1.4-0.4,2.9-0.8,4.3-1.5c1-0.1,1.8-0.7,2.8-0.7c0.7,0.8,1.7,1.6,1.2,2.9c-0.5-0.3-0.8-0.8-1.4-1
		c-2.1-0.7-3.5-0.3-4.9,1.4c-0.5,0.6-0.9,1.2-1.3,1.8c-0.1,0.2-0.2,0.5-0.5,0.4s-0.3-0.4-0.3-0.6
		C929.2,399.3,929.3,398.4,929.3,397.5z"/>
	<path class="st66" d="M919.6,371.5c0.1-0.2,0-0.6,0.5-0.4c0.3,0.1,0.6,0.4,0.4,0.6c-0.2,0.2-0.1,0.8-0.6,0.7
		C919.4,372.3,919.6,371.9,919.6,371.5z"/>
	<path class="st10" d="M949.7,339.4c-0.3-0.9-0.8-1.8-1.1-2.7C949.3,337.5,949.7,338.3,949.7,339.4z"/>
	<path class="st67" d="M928.6,381.5c-0.1,0-0.2,0-0.3,0.1c0.1-0.4,0.1-0.9,0.2-1.3c0.1-0.1,0.2-0.2,0.3-0.3
		C928.7,380.5,928.7,381,928.6,381.5z"/>
	<path class="st36" d="M914.8,386C914.8,386,914.9,386,914.8,386c1.6-0.4,1.4-1.7,1.5-2.8c0-0.1,0-0.2,0-0.3
		c0.1-0.3-0.1-0.7,0.3-0.7c0.3,0,0.3,0.4,0.4,0.6c0.1,0.4,0.2,0.7,0.3,1.1c0.1,0.8,0.3,1.4,1.4,1.3c0.3,0,0.7,0.1,0.3,0.5
		c-0.4,0.3-0.3,0.7-0.2,1.1c0.2,0.7,0.4,1.4,0.6,2.1c0,0.2,0.1,0.4-0.1,0.5c-0.2,0.1-0.3-0.1-0.4-0.2c-0.2-0.3-0.4-0.6-0.7-0.9
		c-0.1-0.1-0.2-0.3-0.4-0.3s-0.2,0.3-0.3,0.5c-0.1,0.3,0.1,1-0.3,0.9c-0.5,0-0.4-0.7-0.4-1.1c-0.1-0.7-0.3-1.3-1-1.6
		C915.4,386.5,915.1,386.3,914.8,386L914.8,386z"/>
	<path class="st10" d="M959.4,369.6l-8.1,2.8l-0.6-0.1c0,0-0.8-0.2-1.1,0.6c0,0-0.2,0.2-0.7,0.1l-10.6,4.5c0,0,0.7,0.8-0.6,1.7
		l-0.8,1.3l16.5,2.3l7.8-2.1c0,0,1.2,0.1,0.7-1.4S959.4,369.6,959.4,369.6z"/>
</g>
</svg>
