<?xml version="1.0" encoding="utf-8"?>
<!-- Generator: Adobe Illustrator 23.0.2, SVG Export Plug-In . SVG Version: 6.00 Build 0)  -->
<svg version="1.1" id="Layer_1" xmlns="http://www.w3.org/2000/svg" xmlns:xlink="http://www.w3.org/1999/xlink" x="0px" y="0px"
	 viewBox="0 0 1369 463.8" style="enable-background:new 0 0 1369 463.8;" xml:space="preserve">
<style type="text/css">
	.st0{fill:#EDEDED;}
	.st1{fill:#B3D6EC;}
	.st2{fill:#275BA4;}
	.st3{fill:#59463F;}
	.st4{fill:#DE211F;}
	.st5{fill:#FFFFFF;}
	.st6{opacity:0.58;fill:#275BA4;enable-background:new    ;}
	.st7{fill:#618EC2;}
	.st8{fill:#E51F20;}
	.st9{fill:#B5CFEA;}
	.st10{fill:#B1D4EA;}
	.st11{fill:#79ADDB;}
	.st12{fill:#1A73BF;}
	.st13{fill:#535658;}
</style>
<g id="Group_22" transform="translate(-1878 -1005)">
	<path id="Path_36" class="st0" d="M1878,1005h1369v434.8H1878V1005z"/>
	<g id="Group_18" transform="translate(1692 280)">
		<g id="Group_2">
			<path id="Path_9" class="st1" d="M449.6,834.1c0,0-52.8,19-73.8,89.9c0.7,0.3,62.5,5.4,62.5,5.4s2.4-62.7,15.2-96.2"/>
			<path id="Path_10" class="st2" d="M456.1,846.9c8.2,62.9-10,85-10,85l75.1,8.4C521.2,940.2,526.7,870.3,456.1,846.9z"/>
			<path id="Path_11" class="st3" d="M368.4,927.2l1,11c0,0,8.1,32.2,130.2,33.1c1.3-2,17.7-11.1,27.7-29.1
				C447.8,945.9,368.4,927.2,368.4,927.2z"/>
			
				<rect id="Rectangle_2" x="386.9" y="882.4" transform="matrix(0.149 -0.9888 0.9888 0.149 -493.8613 1195.9974)" class="st3" width="122.1" height="5"/>
			<path id="Path_12" class="st4" d="M458.4,827.7c0,0,31,8.1,46.3,5.2c-7.4,4.3-22,5.6-22,5.6c5.4,4.7,12,7.8,19.1,9
				c-21.9-3.8-44.6-6.3-44.6-6.3L458.4,827.7z"/>
			<path id="Path_13" class="st5" d="M478.4,895.9l6.2-13.1l6.1,12.2l15.4,2.1l-11.7,10l4.1,13.5l-12.4-5.5l-12.6,7l1.3-13.8
				l-10.2-10.8L478.4,895.9z"/>
		</g>
		<path id="Path_14" class="st6" d="M413.7,858.5l30.6,10.9l2.1-12.2l-24.3-6.2L413.7,858.5z"/>
		<path id="Path_15" class="st7" d="M400.2,874.1l40.7,17.5l-1.5,13.8l-48.1-17.6L400.2,874.1z"/>
		<path id="Path_16" class="st7" d="M382.6,905.5l55.5,16.7l-0.3,7l-60.4-9.7L382.6,905.5z"/>
	</g>
	<g id="Group_19" transform="translate(1356 221)">
		<path id="Path_21" class="st8" d="M1646.5,1019.9l78.6-19l-4.3,17.7l-58.5,14.7L1646.5,1019.9z"/>
		
			<rect id="Rectangle_3" x="1680.1" y="951" transform="matrix(0.9744 -0.225 0.225 0.9744 -177.5131 403.3719)" class="st3" width="2" height="59"/>
		<path id="Path_22" class="st9" d="M1674.2,956.1l-20.1,58.6c0,0,11-7.4,32.4-7.7C1679,992.9,1674.2,956.1,1674.2,956.1z"/>
		<path id="Path_23" class="st9" d="M1676.3,955.9l43.6,43.7c0,0-13.1-1.9-32.3,7.2C1688.1,991,1676.3,955.9,1676.3,955.9z"/>
	</g>
	<path id="Path_17" class="st10" d="M1878,1188.2c0,0,286.1,83.1,638.4,96c548.1,8.6,730.4-96,730.4-96v252.2l-1368.9,10v-262.2
		H1878z"/>
	<path id="Path_18" class="st11" d="M1878,1409.5c0,0,254.3-90.3,596.5-90.3s772.3,90.3,772.3,90.3v58.3l-1368.9-7.5L1878,1409.5
		L1878,1409.5z"/>
	<g id="Group_21" transform="translate(1171.996 -180.844) rotate(24)">
		<path id="Path_21-2" class="st8" d="M1644.1,1018.4l78.6-19l-4.3,17.7l-58.5,14.7L1644.1,1018.4z"/>
		
			<rect id="Rectangle_3-2" x="1649.1" y="978.2" transform="matrix(0.225 0.9744 -0.9744 0.225 2255.0532 -876.6954)" class="st3" width="59" height="2"/>
		<path id="Path_22-2" class="st9" d="M1671.8,954.6l-20.1,58.6c0,0,11-7.4,32.4-7.7C1676.6,991.4,1671.8,954.6,1671.8,954.6z"/>
		<path id="Path_23-2" class="st9" d="M1673.9,954.4l43.6,43.7c0,0-13.1-1.9-32.3,7.2C1685.7,989.5,1673.9,954.4,1673.9,954.4z"/>
	</g>
	<path id="Path_19" class="st12" d="M1878,1355.7c0,0,387.4,112.1,729.6,106.1c342.2-6.1,639.1-130.4,639.1-130.4v137.5l-1368.6-0.2
		v-113H1878z"/>
	<path id="Path_37" class="st13" d="M2945,1130.3c0,0,14-0.1,17,2.6c3.8-6.5,11.9-9.8,11.9-9.8s-8.4,10.7-9.8,15.4
		C2958.7,1134.9,2945,1130.3,2945,1130.3z"/>
	<path id="Path_38" class="st13" d="M2996,1138.3c0,0,14-0.1,17,2.6c3.8-6.5,11.9-9.8,11.9-9.8s-8.4,10.7-9.8,15.4
		C3009.7,1142.9,2996,1138.3,2996,1138.3z"/>
</g>
</svg>
