<?xml version="1.0" encoding="utf-8"?>
<!-- Generator: Adobe Illustrator 23.0.2, SVG Export Plug-In . SVG Version: 6.00 Build 0)  -->
<svg version="1.1" id="Layer_1" xmlns="http://www.w3.org/2000/svg" xmlns:xlink="http://www.w3.org/1999/xlink" x="0px" y="0px"
	 viewBox="0 0 135.1 134.6" style="enable-background:new 0 0 135.1 134.6;" xml:space="preserve">
<style type="text/css">
	.st0{fill:#FFFFFF;}
</style>
<path id="Path_34" class="st0" d="M81.2,33.1l-3.9,9.7l14.3,7c0,0,6.9,0.1,7,4.5c-2.4,8.2-9.6,1.1-9.6,1.1l-14.4-5.5L58.8,91.4
	c0,0,0.9,21.8,32.5,6.2c1.9,1-7.1-7.7-7.1-7.7s9.7,2,23.6-4.4c-20.3,39.7-56,27.7-56,27.7l-6.8,2.2c-0.8-1-1.5-2.1-2-3.3
	c-1.7-2.3-0.8-1.7-2.6-3.6C3.7,87.3,17.1,53.1,17.1,53.1L33,70.2l-10.8,1.3c0,0,9.7,31.2,26.6,18.1c2.3-3.5,17-42.2,17-42.2
	l-16.5-7.3c0,0-6.5-0.4-5.1-5.4c1.9-7.7,8-1.9,8-1.9l16.3,6.1L72,28.7c0,0-5.8-8.1-1-13.4c10-10.6,21.1,1.2,20.8,7.9
	C91.8,32.8,81.2,33.1,81.2,33.1z"/>
</svg>
