<svg id="Layer_1" data-name="Layer 1" xmlns="http://www.w3.org/2000/svg" viewBox="0 0 93.46 106.95"><defs><style>.cls-1{fill:#fff;}</style></defs><title>Path 34N</title><path id="Path_34" data-name="Path 34" class="cls-1" d="M60.14,27.13l2.39,10.16,15.73-2.62s5.69-3.88,8.35-.34c2.84,8.1-7.2,6.45-7.2,6.45L64.48,44.6l11.13,43S89,104.87,105.72,73.82c2.12-.25-10.26-2.12-10.26-2.12s9.1-4,16.68-17.26c6.42,44.12-29.64,55-29.64,55l-4.28,5.68a15.47,15.47,0,0,1-3.51-1.54c-2.77-.91-1.59-.92-4.16-1.43-42.25,4-51.11-31.6-51.11-31.6l22.84,4.72-8.07,7.3s25.93,19.85,32.22-.59C66.26,87.76,55.9,47.66,55.9,47.66l-17.65,3.6S32.73,54.7,31,49.76c-2.86-7.35,5.4-6.13,5.4-6.13l16.8-4.47-3.05-10.3s-9.43-3.28-8.55-10.39C43.64,4.06,59.44,7.23,63.08,12.9,68.56,20.73,60.14,27.13,60.14,27.13Z" transform="translate(-19.44 -8.13)"/></svg>