<svg xmlns="http://www.w3.org/2000/svg" width="135.143" height="134.559" viewBox="0 0 135.143 134.559">
  <path id="Path_34" data-name="Path 34" d="M2287.4,844.519l4.394,9.464,14.871-5.746s4.791-4.954,8.112-2.028c4.417,7.36-5.746,7.774-5.746,7.774l-13.857,6.76,19.6,39.882s16.561,14.2,26.7-19.6c2.028-.676-10.477,0-10.477,0s8.112-5.746,12.844-20.279c15.209,41.91-17.913,59.823-17.913,59.823l-3.042,6.422a15.492,15.492,0,0,1-3.749-.794c-2.9-.331-1.74-.58-4.363-.558-40.558,12.505-56.443-20.617-56.443-20.617h23.321l-6.422,8.787s29.4,14.2,31.432-7.1c-1.014-4.056-19.265-41.234-19.265-41.234l-16.561,7.1s-4.713,4.483-7.436,0c-4.287-6.622,4.056-7.1,4.056-7.1l15.547-7.774-5.07-9.464s-9.9-1.312-10.478-8.449c-.879-14.528,15.233-14.619,19.941-9.8C2294.348,836.547,2287.4,844.519,2287.4,844.519Z" transform="translate(-861.153 -2215.749) rotate(47)" fill="#fff"/>
</svg>
