<svg id="Layer_1" data-name="Layer 1" xmlns="http://www.w3.org/2000/svg" viewBox="0 0 731.7 728.84"><defs><style>.cls-1{fill:#d51c2f;}.cls-2{fill:#d22134;}.cls-3{fill:#7ec2ba;}.cls-4{fill:#6fc7d9;}.cls-5{fill:#fefefe;}.cls-6{fill:#b8e3de;}.cls-7{fill:#9d6350;}.cls-8{fill:#d12234;}.cls-9{fill:#6c6a6d;}.cls-10{fill:#be1e2f;}.cls-11{fill:#02a5a1;}.cls-12{fill:#06a59e;}.cls-13{fill:#6bc7d7;}.cls-14{fill:#60c3d9;}.cls-15{fill:#5cc1d6;}.cls-16{fill:#bbe6ee;}.cls-17{fill:#69c4da;}.cls-18{fill:#dc0918;}.cls-19{fill:#bbe7ee;}.cls-20{fill:#cb8880;}.cls-21{fill:#d12134;}.cls-22{fill:#56bfd2;}.cls-23{fill:#caa18c;}.cls-24{fill:#55c4d3;}.cls-25{fill:#deaf95;}.cls-26{fill:#342f33;}.cls-27{fill:#63b3b5;}.cls-28{fill:#bde9ee;}.cls-29{fill:#7cc3ba;}.cls-30{fill:#e49b88;}.cls-31{fill:#1cc0aa;}.cls-32{fill:#cea28b;}.cls-33{fill:#442b20;}.cls-34{fill:#231816;}.cls-35{fill:#cfa48f;}.cls-36{fill:#8e101b;}.cls-37{fill:#f15c29;}.cls-38{fill:#4f4f51;}.cls-39{fill:#a31625;}.cls-40{fill:#424144;}.cls-41{fill:#f8961c;}.cls-42{fill:#bd1d2e;}.cls-43{fill:#fab441;}.cls-44{fill:#75bfa8;}.cls-45{fill:#b71b2b;}.cls-46{fill:#8f0c1b;}.cls-47{fill:#cea38d;}.cls-48{fill:#bde7ee;}.cls-49{fill:#bfe8f0;}.cls-50{fill:#bde7f0;}.cls-51{fill:#bee7ee;}.cls-52{fill:#b9e7ef;}.cls-53{fill:#ddb096;}.cls-54{fill:#31aca0;}.cls-55{fill:#02a5a0;}.cls-56{fill:#ae1725;}.cls-57{fill:#d21f33;}.cls-58{fill:#6c686b;}.cls-59{fill:#6ac0d6;}.cls-60{fill:#d6182b;}.cls-61{fill:#bce8ed;}.cls-62{fill:#65b2b7;}.cls-63{fill:#54c4d4;}.cls-64{fill:#6a696e;}.cls-65{fill:#659ca4;}.cls-66{fill:#bde8ee;}.cls-67{fill:#f05a28;}.cls-68{fill:#cc9e8b;}.cls-69{fill:#5a8b65;}.cls-70{fill:#cb8780;}.cls-71{fill:#6c6c71;}.cls-72{fill:#b58772;}.cls-73{fill:#65c1ce;}.cls-74{fill:#d61b23;}</style></defs><title>wind-surfer</title><path class="cls-1" d="M406.93,227.05q21.22,40.14,42.42,80.28c5.2,9.87,10.27,19.8,15.4,29.71-.67,2.52-1.6,4.78-4.8,4.77-3.52-.63-4.73-3.56-6.13-6.27-13.56-26.23-27.21-52.41-40.62-78.72-1.76-3.45-3.76-6.78-5.54-10.2-2.13-4.07-4.45-3.86-7.77-1.57-27.64,19.08-55,38.57-82.95,57.23-7.6,5.07-14.65,11-23.19,14.6-4.05,2.9-7.63,6.63-12.95,7.27-2.24-.12-4.46-.29-5.26-3-.32-4.51,3.13-6.77,5.92-9.16s5.72-5,8.8-7.21c15.28-11.76,31.22-22.6,47.35-33.12,14.28-9.31,27.84-19.79,43.18-27.45a21.08,21.08,0,0,0,5.81-4.37,21.11,21.11,0,0,1,7.45-5.13c5-2.24,6.31-5.6,2.89-9.59-7.72-9-11.11-20.21-16.39-30.4-9.08-17.53-18.68-34.77-27.65-52.35-2.81-5.52-3.17-5.5-8.71-2.06-20.56,12.77-40.94,25.82-61.72,38.23-1.73,1-3.42,2.24-5.48,2.62-3.35,2.08-6.49,4.48-10.19,5.95-2.26.9-4.48,1.66-6.87.49a4,4,0,0,1-1.87-4.22c3.77-6.55,9.75-10.75,15.82-14.87,17.46-12.23,36-22.76,54.43-33.34,3.69-2.12,7.37-4.3,11.11-6.32s4.11-4.41,2.17-7.91c-8-14.38-15.11-29.21-23.26-43.5a80,80,0,0,1-4.3-8.06c-1.91-4.45-4.94-7.35-9.85-8.06-8.45-5-18.05-6.91-27.22-9.81-4.95-1.57-9.27,1.64-12.07,7.18s-4,11.57-4.71,17.59c-1.94,17-2.64,34-.74,51a69.27,69.27,0,0,1,.09,11c-.09,3.43-1.17,6.64-2,9.91-.48,1.86-1.12,3.43-3.43,3.39-2.58-.78-3.13-2.87-3.38-5.2-1.17-11.07-1.52-22.2-2.69-33.26-.53-5,1.63-9.46,2.15-14.21.26-2.35.52-4.85-.46-7.2.77-12-.44-24.22,2.4-36.15,1.41-5.93,2.49-12,6.51-16.84s9-6.65,15.17-4.37c10.82,4,21.6,8.14,32.5,11.93,2.84,1,4.14,2.84,5.44,5.2q14,25.51,28.22,50.95c9.95,18.65,19.85,37.32,29.87,55.93Q388.29,192.77,406.93,227.05Z" transform="translate(-65 -33.39)"/><path class="cls-2" d="M459.91,340.79l4.84-3.75,6,9.88a8.15,8.15,0,0,1,4,7.5c-.19,1.45.91,2.34,1.53,3.43q8.4,16,16.79,31.95c0,4.09-2.68,4.66-5.88,4.62-4.15-1.38-5.54-5.23-7.28-8.58-3.74-7.22-7.62-14.37-11.21-21.68-2.67-5.44-3.05-5.5-8.08-2.12-22.64,15.17-44.84,31-67.46,46.18-24.13,16.2-47.74,33.18-72.45,48.53-7.64,5.32-15.25,10.69-23.31,15.34-2.74,1.58-5.41,3.8-9,2.65a4,4,0,0,1-2.11-3.94,18.46,18.46,0,0,1,5.18-7.34c8.3-7,16.29-14.49,25.6-20.25,22.63-18.24,46.87-34.25,70.58-51,21.74-15.34,44-30,65.86-45.07C456.09,345.35,457.41,342.53,459.91,340.79Z" transform="translate(-65 -33.39)"/><path class="cls-3" d="M474.73,354.42a24.15,24.15,0,0,1-4-7.5C474.85,348,478.72,349.1,474.73,354.42Z" transform="translate(-65 -33.39)"/><path class="cls-4" d="M65,736.08l0-94.33c4-1.88,6.65,1.06,9.23,3C90,656.52,107.17,666,124.14,675.86c3.43,2,8.69,1.8,9.58,7.23-1.58,3.27-4.69,3-7.45,2.93-10.61-.38-21.13,1-31.7,1.35-1.14,0-2.46-.4-3.64,1.28,6.29,4.8,13.26,8.49,20.22,12.07C147,719.13,185,730.55,224.7,737c31.55,5.11,63.26,5.33,95,4.54,12.37-.31,24.75-1.65,37.12-2.53,1.64-.11,3.24-.35,4.81.34,7,6.12,15.9,4.24,23.85,4.54,15.38.57,30.69-1.72,45.79-4.91,3.18-.67,6.45-1.57,8.87,1.73-12.07,5.19-25,7.07-37.71,9.7-26.3,5.45-52.91,8.52-79.72,10.33a752.5,752.5,0,0,1-84.82.62c-25.38-1.14-50.64-4-75.84-7.49-31.64-4.4-62.92-10.46-94-17.66A15.34,15.34,0,0,0,65,736.08Z" transform="translate(-65 -33.39)"/><path class="cls-5" d="M592.16,658.56c13.36-6.45,26.68-13.08,41.66-14.95,2.36-.29,6.18-2.1,6.12,3,.58,2.14-.7,3.2-2.2,4.44a61.39,61.39,0,0,0-8.4,8.58c-8.27,5.49-17.68,9.18-25.2,15.9-1.31,1.17-3.3,1.74-3.24,4.38,6.91,1.87,13.69-.26,20.38-1.17s13.44-.71,19.86-3.09a4.65,4.65,0,0,1,5,1.49c1.42,0,2.84,0,4.26.13,2.13.13,5.32-.8,5.81,1.75.44,2.32-2.74,3.27-4.68,4.14-13.2,6-27.19,9.37-41.38,11.78-31.57,5.36-63.2,10.34-94.8,15.48-11.78,5.65-24.64,6.65-37.27,8.47-22.15,3.2-44.27,6.77-66.53,9.1-14.46,1.52-28.88,4.24-43.53,3.23-2.44-1.41-2.31-3.59-1.69-5.87,3.05-11.36,10.31-19.72,19.48-26.5,3.51-2.59,8.11-2.23,10.17,1.74,3.64,7,8.9,6.54,14.94,4.74,3.63.35,5.75,2.16,5.75,6-.71,3.71.46,4.14,3.76,2.6,11.33-5.32,22.34-11.38,34.19-15.53,5.56-1.94,11.32-3.81,16.38,1.39.94,4.85,2.92,5.83,7.9,3.71,14.73-6.28,29.81-11.74,44.87-17.22a41.57,41.57,0,0,1,11.78-2.89c5.19-.3,6.73,1.71,5.61,7.13,3.07-5.72,8.76-8,13.42-11.41a337,337,0,0,1,30.2-19.41C587.05,658.41,589.39,656.92,592.16,658.56Z" transform="translate(-65 -33.39)"/><path class="cls-6" d="M646.15,677.19a219.56,219.56,0,0,1-44.77,6.14c-2.07.06-5,1.08-6-1.57s1.67-3.91,3.25-5.3a116.45,116.45,0,0,1,29-18.5,63.57,63.57,0,0,1,14.19-9.37c1.89-.93,5-3.54,7.09-.38,1.81,2.7-.34,5-2.11,7C642.68,660,639,665,634.09,671.08A244.38,244.38,0,0,0,656.45,655,57.87,57.87,0,0,1,663,650.5c3.52-2,6.65-2.09,8.34,2.75,6.09-4.88,10.34-11.16,15.4-16.63a20.33,20.33,0,0,1,8.28-5.8c7.84-8.24,15.07-17.08,23.77-24.45,2.18-1.85,4.61-5.61,7.45-3.87,2.16,1.32.51,5.31.15,8.11-.17,1.41-.37,2.81-.56,4.21,3.19,4.66,6,3.83,10.08.42,6.92-5.73,13-12.76,21.68-16.1,9.71-8.2,19.39-16.45,29.16-24.58,2.94-2.44,6-4.79,9.71-6,.89,3-.86,5.05-2.35,7.23-32.47,47.52-76.12,79.83-131.3,96.43Z" transform="translate(-65 -33.39)"/><path class="cls-7" d="M367.18,730c17.3-.23,34.28-3.44,51.35-5.63,24.51-3.13,48.92-7,73.37-10.48l23.46-3.39c-10.46,7.62-22.57,11.91-34.32,16.88-13.25,5.6-27.13,9.33-40.91,13.34-9.21,1.44-18.39,3.14-27.64,4.26-13.52,1.65-27.09,2.94-40.69.68-4-.65-8.09-1.18-11-4.48,1-2.94,3.71-2.78,6.07-3.15,19.29-3,38.81-4,58.12-6.89,5.41-.79,10.81-1.64,14.51-2-21.39,2.9-44.48,6.34-67.85,7.14-3.15.11-6.6.71-9.29-1.89C361.36,730,363.39,729,367.18,730Z" transform="translate(-65 -33.39)"/><path class="cls-8" d="M548.33,493.85q19.86,38.11,39.73,76.21c3.19,6.13,6.54,12.18,9.47,18.43,1.93,4.11,3.41,5.1,7,1.33,10.71-11.16,21.9-21.86,32.62-33,14.39-15,27.44-31.11,40.44-47.29,4.85-6,10-11.87,16.44-16.25,1.63-1.1,3.35-2.45,5.61-1.29,2.47,1.27,1.48,3.54,1.54,5.43.19,5.84-2.06,11.19-4.1,16.44a395.91,395.91,0,0,1-30,61.17c-4.62-2.34-1.59-6.08-1.51-9.17.08-2.86,3.15-6.4-.1-8.37s-6.26,1.36-8.43,3.46c-6.13,5.93-12.33,11.77-18.08,18.15-7.18,8-14.75,15.69-22.42,23.25a372.76,372.76,0,0,1-44.4,38c-14,10-27.65,20.74-42.68,29.37-2.48,1.43-4.87,3-7.81,3.27a3.76,3.76,0,0,1-1.73-.29c-3-2-1.07.87-1.45,1.44-.59,2.68-2.79,3.76-4.83,5.12-11.47,7.6-24.31,12.8-35.86,20.26-2.19,1.41-4.61,2.91-7.15.46-2.14-2.42-4.74-4.7-3.23-8.5s4.38-5,8.22-5c1.49,0,3.47-.2,4.32-1.77,3.91-7.17,11.08-7.77,17.91-9,1.48-.27,2.9-.56,3.53-2,2.9-6.63,8.52-9.89,15-11.86,3.57-1.09,2.69-5.42,5.63-6.77,2.68-1.86,5.46-3.61,7.21-6.51a58.56,58.56,0,0,1,14-10.74,11.47,11.47,0,0,0,2.78-2.64c-.37-2.64-2.42-1.27-3.6-1.31-4.94-.16-9.89-.07-14.85-.07-12.19-.49-23.72-4.51-35.6-6.68-7.49-1.37-15.2-1.74-22.5-4.26-1.59-.54-3.15-.74-3.61-2.65.95-3,3.56-3.11,6-3.1,10.16.06,20.3.08,30.47.64,20.73,1.14,41.52.54,62.28.25a10.69,10.69,0,0,0,7.11-3.16c3.45-3.16,7.17-6,10.71-9.06,6.77-5.82,6.92-6,2.92-14.3-12.52-25.82-26.39-51-39-76.74a56.35,56.35,0,0,1-3.28-7.21c-2.64-4-5.31-8-6.51-12.69-4.72-6.74-4.78-6.85-11.87-2.79-4.5,2.59-9.41,4.38-13.76,7.25-7.45,5.36-15.72,9.38-23.72,13.75-42.46,23.24-84.61,47.05-128,68.58-3.25,1.61-7.08,2-9.8,4.74-3.71,2-7.51,3.87-11.34,5.66-2.61,1.21-5.27,2.17-7.93,0-1.65-3.36.62-6.21,1.23-9.28,4-4,8.33-7.37,13.62-9.44,19.62-11.94,39.95-22.62,60-33.74,14.76-8.16,29.61-16.16,44.2-24.61,6.32-3.66,13.79-5.06,19.34-10.13,11.72-5.8,22.41-13.57,34.83-18,2-.71,2.89-2.79,4.64-3.8,4-1.93,8-4,12-6,3.83-1.94,4.7-4.25,2.52-8.34C511.84,448.61,502.12,428,491.24,408c-1.55-2.86-3.08-5.84-1.52-9.28a6.34,6.34,0,0,1,6.81-3c5.58,2.74,7.1,8.31,9.31,13.41,2.71,2.75,2.45,6.35,2.84,9.78q10.09,19.11,20.2,38.22a6.67,6.67,0,0,1,4.63,3.64c3.39,6.71,7.65,13,10.42,20,.27,2.76,2.28,4.6,3.57,6.82A7.48,7.48,0,0,1,548.33,493.85Z" transform="translate(-65 -33.39)"/><path class="cls-9" d="M508.68,418.83a24.09,24.09,0,0,1-4.36-8,21,21,0,0,1,3.85-11.22c.64-.95,1.37-2.21.24-3.27-.8-.75-2-.43-2.9-.13-2.88.94-5.74,2-8.79.73l-6.44,2.51c-.52,2.86-2.47,4.43-4.85,5.82q-22.5,13.19-44,27.93c-2.37,1.62-4.78,4.15-8.22,2.17-1.85-6.32,4.3-8.35,6.82-12.28,1-1.53,2.89-2.67,3.86-4.47,11.48-9,23.8-16.82,36.32-24.31,2.11-1.27,4.39-2.22,6.89-.87l6-3.64c4.38-1.6,8.66-3.56,13.15-4.73,9-2.34,14.38,3,12.3,12.14C516.72,405.06,512.46,411.86,508.68,418.83Z" transform="translate(-65 -33.39)"/><path class="cls-10" d="M471.11,699.2c.59.06,1.34.39,1.76.15q22.39-12.86,44.73-25.81c.4-2,2.54-1.49,3.68-2.44,15.26-7.88,28.52-18.75,42.67-28.31,12-8.11,23.08-17.35,34-26.72,10.3-8.84,19.62-18.85,29.16-28.54s18.36-20,28.49-29.14a28.84,28.84,0,0,1,3-2.08c3.14-2.1,6.69-4.3,10-1.49,3.12,2.62.52,6.33.41,9.62-.13,3.71-3.15,6.76-1.93,10.58-7.89,18.78-21.82,33-35.71,47.22C619,635,605.28,646.48,592.16,658.56c-20,11.56-38.94,24.73-57.62,38.29l-1.19-1.19a28.41,28.41,0,0,0,3.77-3.08c1.52-1.74,4.69-3.52,3-5.94-1.29-1.82-4.49-.88-6.86-.19-19.06,5.58-37.21,13.6-55.73,20.63-2.71,1-5.79,3.95-8.27,2s.66-5.25.46-8C468.84,699.43,469.91,699.27,471.11,699.2Z" transform="translate(-65 -33.39)"/><path class="cls-11" d="M695,630.82c-8.51,9.95-16.38,20.51-26.92,29.16-1.81-3.91,1.44-6.42.63-9.92C655,658,644,669.69,629.26,675.71c4.48-10.36,12.5-18.05,19.92-28-8.81,2.51-14.73,7.3-21.52,10.23,3-5,8.8-6.87,12.28-11.3,15.63-3.37,30.59-8.81,45.51-14.42C688.51,631.08,691.47,628.88,695,630.82Z" transform="translate(-65 -33.39)"/><path class="cls-12" d="M757.59,599.14c-7.7,6.87-15.33,13.83-23.16,20.57-2.06,1.77-4.76,4.37-7.48,2.92-2.93-1.58-1.3-5.08-1.12-7.81q14.5-8.16,29-16.31A2.16,2.16,0,0,1,757.59,599.14Z" transform="translate(-65 -33.39)"/><path class="cls-13" d="M459.91,340.79c1.17,2.42,2.13,4.21-1.19,6.43-46.81,31.3-93.3,63.07-138.6,96.54a18,18,0,0,1-2.1,1.18c-3.8-.31-4.26-3.45-4.77-6.13-5.83-30.7-13-61.14-17.61-92.07-1.15-7.62-3.05-15.12-4.06-22.78a13.83,13.83,0,0,1,1.24-8.82c36.5-25.07,73.08-50,109.4-75.35,4.5-3.14,4.91-.31,6.28,2.33q24.69,47.89,49.4,95.77A26.81,26.81,0,0,0,459.91,340.79Z" transform="translate(-65 -33.39)"/><path class="cls-14" d="M276.36,179.24c24-15,48-30,71.91-45.11,2.16-1.37,3.07-1.08,4.1,1,11.61,23.27,24.83,45.71,35.76,69.35,3.89,8.39,8.75,16.32,13.23,24.43,1.26,2.29,1.92,3.72-1.37,5.26-4.22,2-8,5-11.9,7.52-19,8.21-39.36,3.94-59,6.26-2.19.26-4-.48-4.66-2.88,3.21-6.6-1.23-11.48-3.78-16.8a58.15,58.15,0,0,0-9.14-13.49c-.15,5,2.34,7.79,3.67,10.93,1,2.43,2.79,4.56,3.57,7.05.85,2.74,1.65,6-3.36,5.35-.61-.09-1.35-.29-1.71.2-5,6.72-7.61,1.09-10.6-2.1a67.47,67.47,0,0,0-10.21-9.65c1.79,6.55,6.26,9.69,9.06,13.88,1.68,2.51,4.16,4.58,3.26,8.09a3.51,3.51,0,0,1-5.35.63c-3.52-3-7.45-2.71-11.48-2.2-3.3.41-6-.45-7.81-3.35-2.85-7.91-2.79-16.31-3.88-24.48-1.2-9-1.9-18.08-2.73-27.13C273.52,187.61,273.14,183,276.36,179.24Z" transform="translate(-65 -33.39)"/><path class="cls-15" d="M306.05,59.25c4.91.5,7.66,3.25,9.95,7.68,9.77,18.93,19.9,37.69,30.11,56.4,1.82,3.33,1.3,4.52-2,6.33-23.31,12.82-46.34,26.15-68.59,40.77-2-.79-2.55-2.48-2.76-4.39a283.13,283.13,0,0,1-.76-50c.95-13.68,2.66-27.11,7.1-40.16,2-5.82,5.78-10.27,9.85-14.52C294,56.15,300.05,57.5,306.05,59.25Z" transform="translate(-65 -33.39)"/><path class="cls-16" d="M292.82,315.14c4.37,24,8.56,48,13.16,72,3.72,19.33,6.94,38.78,12,57.83l-30.41,25.38c-2.15-1.28-2.85-3.38-3-5.66-1.14-15.77-1.76-31.57-3.16-47.31-1.06-11.86-2.07-23.72-3.36-35.56-1.09-10-1.82-20.12-2.75-30.18-.56-6.05-.9-12.14-1.73-18.14-1.19-8.49-1.26-8.88,6.64-11.11Z" transform="translate(-65 -33.39)"/><path class="cls-17" d="M325.52,244.39c4.21,2.27,8.94.84,13,.43,9.57-1,19.09-.38,28.61-.77,1.62-.07,4.1.51,4.73-.32,4.15-5.49,10-.26,14.59-2.63.36-.19,1.12.37,1.69.58q-35.71,23.77-71.42,47.59c-8.42,5.65-16.62,11.66-24.91,17.5-3.52-1.31-3.8-4.63-4.21-7.52-2.26-16.06-5.39-32-6.78-48.18-.23-2.7-.77-5.28,2-7,1.16.2,2.39.76,3.47.54,6-1.25,11.83-2.48,16.26,3.51.21.29,1.42-.16,2.17-.26a2,2,0,0,1,1.67-.5c6.18,1.36,6.16,1.37,6.6-4.84.2-3,1.35-4.68,4.63-3.11C320.42,240.73,323.52,241.69,325.52,244.39Z" transform="translate(-65 -33.39)"/><path class="cls-16" d="M306.05,59.25c-11.19-1.31-18.2,3.72-23.51,16.29-6.76,16-7.44,33.26-8.26,50.34-.72,14.86.34,29.71,1.25,44.55l-15.88,12c-3.23-6.54-1.82-13.79-3.07-20.66-1.44-7.95-.29-16.08.14-24.13-.66-19.52-2-39,.27-58.55.93-7.88,2.06-15.69,6-22.81,4.34-7.88,9.93-10,18.2-6.81S297.76,56,306.05,59.25Z" transform="translate(-65 -33.39)"/><path class="cls-16" d="M282.78,244c2.13,21,5.66,41.88,9,62.74-4.78,5-11.14,8.36-15.3,14.07-3.65,3.59-4.6.26-4.62-2.25-.07-9.38-1.8-18.58-2.68-27.86-1.35-14.3-2.58-28.6-4.43-42.86-1.19-9.22-1.76-18.54-2.7-27.81-.84-8.28-1.5-16.57-2.41-24.84-.3-2.79-1.72-6.11,1.18-8.62,5.77-1.22,10.16-5.38,15.57-7.36C277,201,279.92,222.51,282.78,244Z" transform="translate(-65 -33.39)"/><path class="cls-18" d="M260.79,186.6c.3,15.89,2.58,31.62,4,47.41,2.43,27.36,5.37,54.66,8.11,82a27.75,27.75,0,0,0,.63,4.84c.85,3,1.94.21,2.93,0,.79,1.66,2.69.58,3.78,1.52-6,2.41-6.1,6.62-5.48,12.55,3.41,32.27,6.14,64.61,9.14,96.92,1.19,12.84,2.48,25.66,3.72,38.49.39,1.15.78,2.31,1.16,3.46a7.06,7.06,0,0,1,.34,3c-.66,1.85-1.49,3.34-3.8,1.89-4.27-7.57-3-16.12-4.07-24.23-.85-6.49-2.86-13.21.56-19.66-1.73-21.66-3.56-43.31-6.29-64.87-1.82-20.48-3.48-41-5.5-61.43-3-30.18-6.19-60.35-9.38-90.52-1-9.47-2.25-18.92-3.38-28.38l-1.65-25c.07-2.14.63-4.34-.82-6.29-.14-2.39-.27-4.78-.41-7.17,2.95-4.12-.1-9.27,2.35-13.48q1.45,22.4,2.93,44.79A4.27,4.27,0,0,0,260.79,186.6Z" transform="translate(-65 -33.39)"/><path class="cls-2" d="M457.56,328.83c1.76,2,3.4,3.84,3.28,7A7.84,7.84,0,0,1,457.56,328.83Z" transform="translate(-65 -33.39)"/><path class="cls-1" d="M254.78,158.33c3,1.75,2.44,3.95.81,6.29C254.44,162.64,254.59,160.49,254.78,158.33Z" transform="translate(-65 -33.39)"/><path class="cls-4" d="M487.08,393.44c-14.45,8.33-28.29,17.62-42.05,27-4.39,2.06-8.76,4.19-13.55,5.24a27.18,27.18,0,0,0-10.87,5c-4.91,3.72-11.36,4-17.11,5.72a166.81,166.81,0,0,0-20.85,8c-9.74,2.4-18.78,6.66-27.4,11.53A236.9,236.9,0,0,0,328.57,473c-2,1.52-4.05,2.86-6.62,1.12C319,468,315.82,462,319.32,455q46.14-31.38,92.28-62.76,25.69-17.54,51.23-35.32c2.95-2.06,4.17-2.41,6,1.39C474.64,370.15,481,381.74,487.08,393.44Z" transform="translate(-65 -33.39)"/><path class="cls-19" d="M319.32,455q1.88,9.48,3.74,18.95c-.74,4.39-5.38,4.91-7.67,7.79-5.58,3.9-12.07,5.68-18.37,7.88-4.74,1.66-8.45.91-9.86-4.63-1.15-3.36,2-6.45.6-9.82l1-1.36C299.5,468.4,308.91,460.87,319.32,455Z" transform="translate(-65 -33.39)"/><path class="cls-5" d="M207,711.69c6.42-.34,12.71-2.57,19.81-1.39-2.5,4.41-7.95,4.17-10.82,8,14.55-.65,28.66-1.28,42.78-1.89,1.22-.06,2.44.05,3.66,0,1.87,0,4.23,0,4.85,1.75.78,2.19-1.84,2.73-3.22,3.78-1.06.79-2.58,1.08-3.31,3.52,23.8-2.37,46.17-10.48,69.46-12.77l.91,1.54a74.85,74.85,0,0,0-6.51,5.92c-4,4.49-3,7.89,2.89,10,6.56,2.34,13.51,2.82,20.38,3.26,4.86.3,9.77,0,14.65-.09,18.36.58,36.57-1.49,54.82-3,10.1-.82,20.18-2,30.34-2.53a846.34,846.34,0,0,1-86.89,13.27c-34.48,3.27-69,4.74-103.61,2.19-49.6-3.65-97.07-15.26-141.8-37.25-11.28-5.54-22.35-11.55-33.88-20.55,11.62-.76,21.57-1.51,31.53-2,6.89-.36,13.82.14,20.65-1.2,12.53,0,25.08-.7,37.57,1a11.83,11.83,0,0,1,2.41.15c2.69,1,7,.26,7.47,3.87.43,3.19-3.54,3.9-5.84,5.34-2.89,1.82-5.88,3.49-8.83,5.22-.45,2.52-2.1,4.27-3.76,6.09-2.68,2.94-1.69,5.4,1.71,6.55,5,1.67,10.16,3.81,15.44,2.92C188.85,712,197.92,712.18,207,711.69Z" transform="translate(-65 -33.39)"/><path class="cls-20" d="M409.67,707.72a35.37,35.37,0,0,0-3-2.84c-9.94-7.35-13.16-16.67-7.9-29.12-10.17,1.14-19,5.59-28.5,6.47-.43-4.49,3.56-5.45,6.1-7.54,1.89-1.57,4.33-2.25,6.37-3.59,2.23-1.63,4.24-3.55,6.6-5,1-.58,1.86-1.27,2.79-1.91,3.45-2.71,6.09-6.7,11-7.08,4.79-.54,7.55,2.07,9.58,6a59.75,59.75,0,0,1,3.85,9.6c5.49,8.76,8.87,18.56,13.56,27.71a9.09,9.09,0,0,1,.73,7.06c-5.42,5.62-11.69,7.58-16.21,5.08C415.76,708.11,413,707.66,409.67,707.72Z" transform="translate(-65 -33.39)"/><path class="cls-21" d="M414.64,712.57c5.67-.52,10.39-3.53,15.35-5.88,1.11-3.44,3.94-5,7-6.33,18.42-8,35.53-18.57,53.46-27.52a15.77,15.77,0,0,0,2.89-2.22c8.91-6.16,18.43-11.3,27.87-16.59a3.49,3.49,0,0,1,2.6.74,1.14,1.14,0,0,1,0,1.65c-2.36,7.76-11.19,7.43-15.73,12.5-.62.69-2.49,1-2.48,1.41.32,11.16-9.42,7.68-14.74,9.26-3.58,1.06-5.89,2.88-8.58,4.77.31,1.64,3.87-.15,2.75,2.74a2.89,2.89,0,0,1-3.32,2.07,14.68,14.68,0,0,0-4.05-.44c-8.74.95-9.69,2.3-6.46,10.47l-1.41,1.86c-3.47-3.77-7.51-2-11.28-.93-11.17,3.1-21.39,8.53-31.77,13.54-2.73,1.32-5.44,2.69-8.24,3.87-2.15.91-5.13,3.26-6.55,1.43C410.21,716.85,412.92,714.44,414.64,712.57Z" transform="translate(-65 -33.39)"/><path class="cls-16" d="M544.4,505.38q23.42,45.48,46.89,91c1.47,2.83,1.42,4.57-1.2,6.68-6.33,5.09-12.5,10.41-18.57,15.81-2.41,2.15-5,2.15-7.94,2.12q-48.54-.54-97.07-1c-1.68,2-3.69,1.79-6.07,1.36-15.15-2.74-30.38-5.11-45.43-8.37a17.67,17.67,0,0,0-12.95,1.9c-5.57,3.19-11.57,4.87-17.78,6.06a46.24,46.24,0,0,0-13.49-.58c-12.69,1.39-25.42,1-38.14.95-3,0-6.1.33-8.86-1.35-1.62-1-1.8-2.54-1.45-4.26a169.39,169.39,0,0,1,5.75-21.15c.44-1.29,1.2-2.63,2.88-2.84,6.6-1.34,11.91-5.66,18.14-7.85,1.4.3,3-.41,4.22.32,12,7.29,24.06,3.38,36,0,18.13-5.15,34.78-13.85,51.47-22.32,31.21-15.85,60.61-34.92,91-52.17C535.74,507.43,539,503.17,544.4,505.38Z" transform="translate(-65 -33.39)"/><path class="cls-22" d="M544.4,505.38c-31.09,17.7-61.21,37.06-92.8,53.89-21.52,11.48-43.18,22.7-66.9,29.22a78.14,78.14,0,0,1-15.61,2.57c-7.58.49-14.5-1.58-20-7.22,54.43-27.46,107.5-57.44,161.05-86.53,8-1.63,16.4-.71,24.11-4.06,1.37-.59,2.74-.72,3.9.51Z" transform="translate(-65 -33.39)"/><path class="cls-23" d="M523.64,654.84l-2.43.83a34.07,34.07,0,0,1-17.14,3.57c-14-.52-28.09.92-42.1-1.11-12.11-1.75-24.14-3.87-35.65-8.12-5.93-2.19-11.71-3.23-17.78-1a4.35,4.35,0,0,1-4.4-2.65C401.39,640,397,634.64,393,629.09a6.49,6.49,0,0,1-1.27-5.71c4.75-7.13,12.47-8,19.86-8.66,9.37-.78,18.68,1.32,27.87,2.91q35,6.09,69.95,12.68c10.36,1.93,20.73,3.81,31.24,4.79,2.51.23,4.35,1.19,3.94,4.2-4.16,4.07-9.69,6.45-13.51,10.94C528.74,652,526.54,654,523.64,654.84Z" transform="translate(-65 -33.39)"/><path class="cls-24" d="M469.87,507.08q-61.69,34-123.37,68.06c-2.62-.88-3.73-2.93-4.25-5.47a166.32,166.32,0,0,1-2.68-17.35c.94-11.57,4.71-22.49,7.84-33.55a3.54,3.54,0,0,1,2.13-2c10.36-3.88,21.37-2.25,32-3.65,25-3.28,50.27-4.34,75.2-8.35,3-.49,6.1-.17,9.16-.31C467.74,504.33,469.75,504.44,469.87,507.08Z" transform="translate(-65 -33.39)"/><path class="cls-25" d="M544.61,639.3c-1-.72-1.83-2-2.86-2.09-21.35-2.77-42.4-7.37-63.72-10.42-12.78-1.83-25.51-4.35-38.3-6.32-7.83-1.21-15.67-2.55-23.55-3-8.72-.55-16.93,1.47-23.54,7.8-5,.63-8-1.26-8.32-6.6a28.52,28.52,0,0,0,13-4.83c8.62-5.58,17.16-4.15,26.24-2.2,14.26,3.07,28.65,5.6,43,8.36,20.69,4.58,41.44,8.85,62.38,12.13,4.11.69,8.32.62,12.42,1.26,2.37.37,5.45-.33,6.66,2.91A7,7,0,0,1,544.61,639.3Z" transform="translate(-65 -33.39)"/><path class="cls-26" d="M353.57,505.77q-1.94,6.14-3.86,12.28a279.17,279.17,0,0,0-8.5,34.2c-1.12,5.69.2,11.53-1.64,17.27-1.55,4.84-3.06,9.51-6.49,13.35q-1.06,4.41-2.11,8.81l-7.8,26.6c1.69,2.5,1.4,4.68-1,6.52a2.47,2.47,0,0,1-2.8-1.08,5.44,5.44,0,0,1-.71-5c1.49-8.59,4.18-16.9,6.24-25.36.37-2.86,3-5.14,2.09-8.31,2.82-12.69,6.68-25.12,9.49-37.82,4.4-8.76,3.64-19,7.78-27.8.13-5.55,2.44-10.8,2.12-16.45a18.73,18.73,0,0,0-.82-4.62,19.16,19.16,0,0,0-.79-4.93c.65-9.06,2.65-10.77,8.88-7.63,2.61,3.33-.73,5.69-1.42,8.48a13.48,13.48,0,0,0-1,3.91,9.29,9.29,0,0,1,1.14-3.83c1.05-1.05,2.15-1.47,3.43-.35C359.05,498.66,356.42,502.23,353.57,505.77Z" transform="translate(-65 -33.39)"/><path class="cls-27" d="M538.17,493.76c-4.13,3.66-9.19,4.52-14.44,4.81-3,.16-6-.32-8.87,1.16-2.26,1.15-3.73-.44-4.7-2.42,6-3.54,12.27-6.8,18.06-10.71,4.44-3,6.6-1.79,8.08,2.78C536.79,490.88,537.54,492.3,538.17,493.76Z" transform="translate(-65 -33.39)"/><path class="cls-28" d="M333.08,582.87l8.13-30.62q2.64,11.44,5.29,22.89Z" transform="translate(-65 -33.39)"/><path class="cls-29" d="M496.72,396.94a32.46,32.46,0,0,1,11.75-4.37c1.57-.28,3.33-.56,4.44,1s.17,3.18-.62,4.51c-2.58,4.3-5.3,8.51-8,12.76Z" transform="translate(-65 -33.39)"/><path class="cls-30" d="M670,524.39c5.77-9.56,12.72-18,22-24.34,1.43-1,3.32-2.15,5-.61s1.94,3.48.91,5.94c-4-2.6-7.15-.54-10.33,1.92C681.14,512.34,676,518.76,670,524.39Z" transform="translate(-65 -33.39)"/><path class="cls-31" d="M548,636.26l-19.08-4.17h24.23C552.1,634.89,549.53,634.93,548,636.26Z" transform="translate(-65 -33.39)"/><path class="cls-21" d="M521.28,671.1l-3.68,2.44c-1-1.47-3.28-1.77-3.66-4.25C516.78,668.48,518.76,671.11,521.28,671.1Z" transform="translate(-65 -33.39)"/><path class="cls-10" d="M523.64,654.84c2.35-1.76,4.3-4.16,7.46-4.6-1.63,3-4.79,4.28-7.38,6.18C523.7,655.89,523.67,655.37,523.64,654.84Z" transform="translate(-65 -33.39)"/><path class="cls-32" d="M433.06,435.44c-2.44,1.48-5.41,2.07-6.42,5.57-.64,2.22-3.28,2.56-5.51,2.73-4.18-.43-7.16,2.58-10.78,3.78-7.54.85-12.74,6.1-18.53,10.08-10,6.9-19.51,14.57-29.66,21.35-4.94,3.29-10.7,3.62-15.68,6.19-6,3.08-11.14,7.5-17,10.77-9.25,7.15-17.71,15.25-26.82,22.56-2.35,1.9-4.58,4.37-7.9,1.64-1.71-6-3.67-12-3-18.44,3.36-5.29,8.71-8.3,13.64-11.79,18.56-13.1,38.7-23.44,58.65-34.18,12.08-6.5,25-10.91,35.36-16.67-2.63,1-6.7,3.25-10.95,5.11-2.64,1.15-4.66,1-6.53-1.14-.09-.27-.17-.55-.26-.83a158,158,0,0,1,26.86-9.53c9.34-2.51,16.44-9.86,26.37-11.18a71.8,71.8,0,0,1,10.12-1C441.72,426,436.1,429.69,433.06,435.44Z" transform="translate(-65 -33.39)"/><path class="cls-33" d="M211.77,499.44c-7.91.16-15.82.43-23.73.44a36.77,36.77,0,0,1-18-4.91c-4.64-2.46-.82-5.05-.07-7.78-2.73-1.83-6.14-1.67-9.1-2.89-3.68-1.52-7.81-2.59-4.69-8.09.58-1-1.58-1.94-.66-3.3,2.33-3.33-2.56-1.54-2.34-3.56,2.78-2.14,7-1.21,10-4.2-2.92-3.22-8.66-2.74-10.06-7.61,1.28-1.86,5.88,3.65,5.27-2.38a5.2,5.2,0,0,1,1,.24c7.72,3.53,14.54.56,21.6-2.48,3.23-1.38,7.11-1.57,10.71-1.7,11.56-.44,23.12-1.67,34.7-.31,11.14,1.31,18.14,7,19.64,15.82-.24,2.37-2,3.59-3.87,4.25-2.88,1-4.08,3-4.44,5.84-3.47,6.83-9.06,5.11-14.6,3.65-2-.75-3.85-3-6.13-1.12-1.82,1.48-1,3.74-.93,5.75a46.37,46.37,0,0,0,1.39,6.52C218.41,496,216.44,498.52,211.77,499.44Z" transform="translate(-65 -33.39)"/><path class="cls-34" d="M252,478.78c3.31.29,2.39,2.67,2.11,4.54-.51,3.4-1.23,6.77-1.86,10.16-1.65,4.55-4.44,5.32-7.55,2a16.31,16.31,0,0,1-2.84-5.31c-1.21-2.94-3.57-3.61-6.43-3.29a5.16,5.16,0,0,0-5,5.17c-.59,7.22-1.84,14.6,4.18,20.49a3.15,3.15,0,0,1,.75,2.84c-2.15,3.9-5.35,4.41-9.19,2.85-7.27-7.37-8.62-16.43-5.5-25.63,1.49-4.42-.26-9.36,2.92-13.22.92-.68.66-3.16,3.21-1.18,3,2.34,6.5,1.82,9-1.59,4.43.57,8.39-3.35,13-1.37C250.44,475.93,248.35,480,252,478.78Z" transform="translate(-65 -33.39)"/><path class="cls-35" d="M248.83,475.25c-3.08,1.3-5.39,4.19-9.21,4-2-.09-3.63-.15-3.76-2.65-1.21-4.26-.66-7.35,4.67-7.93,1.9-.21,3.7-1.28,5.55-2C248.48,469.09,248.31,472.28,248.83,475.25Z" transform="translate(-65 -33.39)"/><path class="cls-36" d="M270.54,497.7l7.23-3.77a3.42,3.42,0,0,1,2.78-1.38c2.77.36,4.33,2.19,5.07,4.64,3.06,10.08,5.64,20.26,5,30.94a7.27,7.27,0,0,1-4.05,7c-10.53,5.55-11.07,14.08-7.56,24,1.79,3.14,1,7.2,3.6,10.06,3.47,9.16,4.89,19,9.62,27.75,1.78,6.52,6.08,11.94,8.06,18.38,1,6.7,1.34,13.21-1.88,19.62-4.91,9.74-13.9,12.16-23.35,12.91-10.7.85-21.5,1.13-32.18-1-3.31-.65-6.31-1.62-7.89-4.94-9.18-11.22-18.21-22.56-26.48-34.48,3.69-2.23,5.65.66,7.69,2.77,7.38,7.64,15,15,24.64,19.76.73.36,1.37.88,2.11,1.23,10.36,4.82,15,1.91,15-9.44-.06-8.63-2.34-16.86-4.69-25.09C248.71,581,242.58,565.9,236,551c-2.32-5.28-6-7.36-11.53-6.82-12.1,1.17-23.33,5.32-34.46,9.84-3.55,1.44-3.29,4.25-2.32,7.17A104.61,104.61,0,0,0,198.56,585c2.31,3.6,4.52,7.26,6.66,11,1.28,2.2,2.93,4.64,0,6.94q-13-15.69-27-30.44c-8.43-8.86-6.56-19.8-3.74-30.42.32-1.18,1.66-2.26,2.76-3,5.75-4.13,11.58-8.15,17.38-12.21,10.13-6.71,21.2-3,31.9-2.67,9,.26,16.79-2.49,24-7.54,6-4.21,11.09-9.6,17.19-13.68C269.58,501.62,270.11,499.71,270.54,497.7Z" transform="translate(-65 -33.39)"/><path class="cls-37" d="M205.2,602.89c-1-6.09-5.64-10.14-8.53-15.15A142.51,142.51,0,0,1,184,559.41c-1-3.1-.81-5.64,2.58-7,13-5.4,26-10.58,40.31-11.05,5.06-.17,8.35,1.7,10.56,6.43,10.06,21.41,18.63,43.33,22.72,66.73a57.47,57.47,0,0,1,.28,14c-.43,5.71-4.41,8.51-10.14,7.65-12.36-1.87-21.13-9.78-29.91-17.75-4-3.62-6.54-8.86-11.95-10.94A10,10,0,0,0,205.2,602.89Z" transform="translate(-65 -33.39)"/><path class="cls-38" d="M235,641.9c13.9,4,28,4.23,42.3,2.76,19.46-2,23.33-16.68,20.32-29.91a3.31,3.31,0,0,1,3.46.06,34.45,34.45,0,0,1,11.86,14.29c-4.4,17.25-18.72,28.65-37.86,29.9-6.9.46-13.84.11-20.76.11-4.11,0-7.19-2.69-10.91-3.62a7.08,7.08,0,0,1-.88-.31C239.76,650.89,234.48,648,235,641.9Z" transform="translate(-65 -33.39)"/><path class="cls-39" d="M270.54,497.7c2.49,1.73,4.34,3.08.56,5.87-6.21,4.58-12,9.81-18,14.66-11.21,9-24.21,9.78-37.69,7.85-5.74-.81-11.61-1.76-16.32,2.35-3.34,2.92-3-1.13-4.5-1.66l3.91-3.66c-.86-6.53,1-9.35,7.45-11.21,7,.71,14.35.26,20.46,4.87,3.06.27,6-.1,8.43-2.15,2.24-5.51,6.81-6.37,12-6.05Z" transform="translate(-65 -33.39)"/><path class="cls-40" d="M243.38,655.49c9.43.31,18.87,1,28.29.82,12.8-.31,24.09-4.48,32.62-14.75,3.41-4.09,3.71-9.88,7.93-13.4.91-.83,2.16-1,3.16-1.73,1.72-1.15,2.43-3.71,5.05-3.56l1.35,1.68c1.94,1.41,1.29,3.32,1,5.15-.61,5.49,3,10.36,2.39,15.85-.25,2.58,1.43,4.94.87,7.56-4,15.91-15.65,22.08-30.64,24.5a44.54,44.54,0,0,1-26.13-3.17C259.22,670.06,249.77,664.87,243.38,655.49Z" transform="translate(-65 -33.39)"/><path class="cls-41" d="M324.11,652.75l-1-7.82c1.71-.95,3.18-.4,4.56.71,4,4.75,3.16,11.18,5.89,17.16,2.17-2.64,2.94-5.47,3.95-8.11a45.29,45.29,0,0,1,10.32-16.34c10.12-10,24.3-10.76,38.37-2.28,8.81,4.52,15.69,10.64,17.53,21a4.26,4.26,0,0,1-.74,1.67l-9.92,7.18c-2.49-.39-2.89-2.48-3.7-4.35a36.79,36.79,0,0,0-8-11.39c-7.46-7.37-20.55-5.2-26.41,4.19-3.29,5.28-4.78,11.2-6,17.22-2,10-3.88,11.54-13.51,9.53-5.65-1.18-10.44-.43-14.86,3.15a24.23,24.23,0,0,1-3.65,2.23c-11.33,6.21-22.55,8.1-33.53-.76l-7.24-5.94c1.46-2.56,3.67-1.62,5.89-1.48,11.52.75,22.63-.23,32.46-7.36C320.82,666.37,324.92,660.93,324.11,652.75Z" transform="translate(-65 -33.39)"/><path class="cls-42" d="M283.42,685.72c12.43,5.88,24.42,4,35.06-3.68,6.52-4.72,12.64-5.6,19.78-3.06,4.61,1.65,6.88.67,7.49-4.8,1.07-9.54,3.23-18.88,10.7-25.87,8.59-8,19.71-7.49,27.34,1.33a46.66,46.66,0,0,1,9.32,16.26c-.65,1-1.42,1.72-2.74,1.45-2.67,0-4-1.8-5.06-3.81a46,46,0,0,0-4-6.15c-6.24-7.95-15.59-7-20.09,2-3.59,7.21-5,15-6.2,22.87-.52,3.49-1.38,6.77-3.71,9.52-9.19,5-18.72,7.48-29.34,5.53a43.07,43.07,0,0,0-18.22.27c-2.69.67-4.76-.22-6.87-1.52A71.91,71.91,0,0,1,283.42,685.72Z" transform="translate(-65 -33.39)"/><path class="cls-43" d="M351.35,691.81c.56-11.17,2.32-22.13,6.79-32.44,5.5-12.67,16-14.23,25.12-3.94a40.18,40.18,0,0,1,7.11,11.92c-1.2,2.62-3.66,3.71-6,4.93-4.15,0-5-3.77-6.89-6.21-1.7-2.15-3.2-4.43-6.33-3.9s-4.07,3.08-4.86,5.68A56.73,56.73,0,0,0,364.12,678a17.3,17.3,0,0,1-3.93,9.33A23.1,23.1,0,0,1,351.35,691.81Z" transform="translate(-65 -33.39)"/><path class="cls-44" d="M207,711.69c-13.79,2.26-27.37,8.19-41.62,2.32-1.12-.46-2.31-.76-3.4-1.27-6.42-3-6.88-5.46-1.88-10.21,1.91-1.81,3.8-3.68,6.37-4.61C179.43,704,192.47,710,207,711.69Z" transform="translate(-65 -33.39)"/><path class="cls-45" d="M360.19,687.32a91.07,91.07,0,0,1,3.93-22.09c1.07-3.27,2.76-6,6.43-6.6s6.22,1.5,8.12,4.29c2,3,3.8,6.23,5.69,9.36-4.11,4.17-9.61,6.36-14.13,10Z" transform="translate(-65 -33.39)"/><path class="cls-46" d="M324.11,652.75c3,8,.3,14.22-6.08,19.19-11,8.62-23.48,11.21-37.11,8.37-1.58-.33-3.09-1-4.74-.53l-6.92-5.34c9,.09,17.89,2.42,27,.34C309.11,671.83,320.15,666.85,324.11,652.75Z" transform="translate(-65 -33.39)"/><path class="cls-47" d="M205.35,513.53q2.4-4.42,4.79-8.87a7.17,7.17,0,0,0,1.63-5.22c3-2.71,5-5.68,3-10a19.82,19.82,0,0,1-1-4.73c-.53-3-1.37-6.43,1.61-8.3,3.5-2.18,6,.58,8.3,3,1.42,5,.48,10.05-.85,14.85-2.28,8.18,1,15.25,3.64,22.53A72.85,72.85,0,0,1,205.35,513.53Z" transform="translate(-65 -33.39)"/><path class="cls-48" d="M325.52,244.39c-5.17,2.88-6.64-3.28-10.23-4.3-1.14,1.61.06,2.79.7,3.89,2.19,3.8.3,5.88-2.76,7.93-3.26,2.17-4.71.19-6.33-2.1a12.86,12.86,0,0,0-2.22-2c-4.71-5.84-9.58-11.55-14-17.59-1.09-1.5-4.39-3.7-1.06-6.08,2.57-1.84,5.06-.77,7.07,1.37,3.2,3.42,6.4,6.83,9.49,10.34,1.3,1.47,2.32,3.18,3.73,5.16,2.23-3.79-1.77-6.73,1-8.13,3-1.5,3.42,3.44,6.95,3.76-3.14-6-6.16-11.67-9.13-17.39-1.29-2.48-3.4-5,.7-7.08,3.56-1.75,4.79.38,6.6,3,4.38,6.41,7.73,13.37,11.62,20C329.87,239.05,329.68,242.14,325.52,244.39Z" transform="translate(-65 -33.39)"/><path class="cls-49" d="M348.62,223.42c.19,2.16,5.41,3.17,1.6,6.18-3.62,2.85-5.53,1.43-7.81-2.46-4.21-7.18-9.49-13.72-14.15-20.65-1.06-1.57-3.83-3.38-.84-5.61,2.64-2,4.13,0,5.37,2,2.86,4.49,8,5.32,13,8.67-1.49-5.5-5.07-8.33-7.09-12-.87-1.6-3.4-3.32-.76-5.15,2.07-1.43,3.86.19,5.25,1.77q9.06,10.32,18.05,20.72c1.32,1.54,4,3.16,1,5.39-2.47,1.79-5.21,3.68-8.07.51a25.36,25.36,0,0,1-2.06-3,14.1,14.1,0,0,1-6.47-3.35C348.48,217.54,348,220.76,348.62,223.42Z" transform="translate(-65 -33.39)"/><path class="cls-50" d="M353,187.56c10.86.13,23.33,14.26,22.08,25-.39,3.41-2.21,5.34-5.47,6.45s-4.43-1.42-5.73-3.21c-5-6.89-9.83-13.89-14.6-20.94-1.06-1.58-3.32-3.1-2.26-5.28C348.2,187.22,350.83,187.62,353,187.56Z" transform="translate(-65 -33.39)"/><path class="cls-51" d="M320,206.31a3.89,3.89,0,0,1,3.41,1.92c5.65,7.13,11.15,14.38,17,21.36,2.73,3.27.93,4.66-1.5,6.62-3.07,2.47-4.51,1-6.15-1.64-4.82-7.71-9.79-15.33-14.7-23-.63-1-2-2-1.07-3.13A11.54,11.54,0,0,1,320,206.31Z" transform="translate(-65 -33.39)"/><path class="cls-17" d="M348.62,223.42a88.71,88.71,0,0,1-10.77-13.85c6.1,3.3,11.73,4.44,14.28,10.14Z" transform="translate(-65 -33.39)"/><path class="cls-17" d="M395.84,232.8c-3.21-.74-5.69-2-5.25-5.93a2.24,2.24,0,0,1,1.91-2.05,2.58,2.58,0,0,1,2.71.9c.86,1.13,0,1.61-.87,2.33C390.38,231.5,397.34,229.9,395.84,232.8Z" transform="translate(-65 -33.39)"/><path class="cls-52" d="M315,198.64c1.67.32,3.38.8,3.61,2.64s-1.31,3-3,3a3,3,0,0,1-3.41-3.25C312.28,199.34,313.51,198.74,315,198.64Z" transform="translate(-65 -33.39)"/><path class="cls-50" d="M297.06,115.26c-1.55-.05-2.46-.52-2.89-1.52s-.27-2.36-.91-2.84c-7.72-5.84-.71-11,.74-16.32.22-.82,1.68-2.12,1.93-2,4.13,2.19,9.1,3.8,11.85,7.2,1.52,1.89.38,7.62-1.52,10.15S299.39,112.51,297.06,115.26Z" transform="translate(-65 -33.39)"/><path class="cls-2" d="M286.78,484.22l-.21-5.3c.39-1.26.79-2.52,1.19-3.79,1.49,3.16.77,6.61,1.28,9.89a9.4,9.4,0,0,1,.22,4.68,1.58,1.58,0,0,1-1.66.62C285,488.6,287.34,486.22,286.78,484.22Z" transform="translate(-65 -33.39)"/><path class="cls-32" d="M314.66,479.28l8.4-5.36c7.84-5.06,15.62-10.21,23.53-15.16a163.76,163.76,0,0,1,35.09-16.59l.15.19c.9,3.75-1.85,5.1-4.41,6.24-15.36,6.84-29.22,16.46-44.34,23.76-4.49,2.16-8.48,5.45-12.82,8C318.14,481.66,315.87,483,314.66,479.28Z" transform="translate(-65 -33.39)"/><path class="cls-53" d="M314.66,479.28c5.78,1.29,9.22-3.39,13.43-5.66,17-9.19,32.54-21,50.49-28.59,1.24-.53,2.17-1.76,3.25-2.67,4.27,1.11,7.9-.79,11.53-2.53a40.34,40.34,0,0,1,15.9-4.17c-3,3.9-7.23,3.82-10.49,5.47q-29.59,15-59.31,29.65c-13.56,6.74-24.94,16.71-37.46,25-2.83,1.88-5.32,4.33-8.68,5.36-4.9-2.56-5.95-5.09-4.59-11,.1-1.71.21-3.41.31-5.11.87,3.13,2.38,3.74,5.64,2.5A214.55,214.55,0,0,0,314.66,479.28Z" transform="translate(-65 -33.39)"/><path class="cls-54" d="M403,658.72c0-.29,0-.59-.08-.89.58-3.72,1.07-7.48,4.32-10.06,3.94-2.68,7.88-4.86,13-2.9,32.68,12.56,66.62,13.6,101,10.8a242.78,242.78,0,0,1-26.65,16.94c-23.33,3.48-46.82,2.43-70.27,2.55a24.53,24.53,0,0,1-9.53-1.47c-1.36-2.87-2.91-5.66-4-8.62C409.32,661.4,407.14,659,403,658.72Z" transform="translate(-65 -33.39)"/><path class="cls-55" d="M414.76,673.69c2.07-1.8,4.6-1.33,7-1.34,13.21,0,26.43.12,39.64-.08,8.51-.13,17-.78,25.52-1.13,2.64-.1,5.32-.18,7.64,1.47A523.27,523.27,0,0,1,430,706.68Z" transform="translate(-65 -33.39)"/><path class="cls-56" d="M407.27,647.77c1.07,4.43-.94,7.54-4.32,10.06a50.77,50.77,0,0,0-17.42-20.05c-3.37-7-9.91-11.39-14.22-17.61a2,2,0,0,1,.83-1.43c4.05-.69,8.09-3,12.18-.11l8.32,6.6C399,631.78,404.64,638.8,407.27,647.77Z" transform="translate(-65 -33.39)"/><path class="cls-57" d="M372.14,618.74c0,.34-.05.68-.08,1-5.07,6.67-11.37,11.26-20,12a232.59,232.59,0,0,1-23.76.54c-2.79-.14-5.83.21-7.57-2.83.36-1.62.72-3.25,1.07-4.87q.71-3.13,1.39-6.27Z" transform="translate(-65 -33.39)"/><path class="cls-58" d="M380.48,473.9c-8.74,6.47-17.63,12.76-25.77,20l-2.16,1.18c-.78-.09-.84-.93-1.33-1.31-1.51-2.82,1.23-4.08,2.19-6,.37-2.9,2.38-4.76,4.57-6.16,17.41-11.13,33-24.84,50.44-35.86a9.12,9.12,0,0,1,2.19-1c3.33-2.28,6.69-4.17,10.52-1Z" transform="translate(-65 -33.39)"/><path class="cls-16" d="M339.57,546.87q-4.89,19.23-9.79,38.45c-4.18,6.78-11.24,9.5-18,12.63-4.92,2.29-7,1.39-8.46-3.84-2.07-7.16-3.76-14.42-5.34-21.71a4.88,4.88,0,0,1-.38-3.57c4.86-13,7-27.19,16.8-38.09,2.95-3.29,5.69-6.91,5.79-11.72,3.4-3.45,5.7-8.64,12-7.57,3.71,2,2.7,6,4,9.05A60.65,60.65,0,0,1,339.57,546.87Z" transform="translate(-65 -33.39)"/><path class="cls-59" d="M410.61,444.72l-57.2,43c-1.38-1-2.65-3-4.62-1.57-2.56,1.84-1,4.84-1.53,7.26-3.15,6.86-12.42,13.54-17.9,12.92-3.86-3.61-3.76-7.78-1.71-12.22C335,488.79,342.58,484,351.42,481c12.46-4.18,22.61-12.49,33-20.24,6.17-4.6,12.56-8.91,18.94-13.21C405.54,446.1,407.74,444.47,410.61,444.72Z" transform="translate(-65 -33.39)"/><path class="cls-60" d="M300,571.74c1.91,7.8,4,15.56,5.67,23.41.73,3.37,1.66,3.28,4.31,1.63,6.49-4,13.2-7.66,19.83-11.46l-2.28,8.78a22.09,22.09,0,0,1-10.15,7.23c-5.65,2.11-6,4.57-2.24,9.49,1.94,2.52,5.14,4.09,5.7,7.64-.12,1.47-.25,2.94-.38,4.41-1.77,2.31-.14,6.84-4.76,7.28-12.78-9.82-13.76-24.92-17.14-38.86-1.36-5.61-1.52-11.49-1.63-17.31C297.45,572.58,298.19,571.45,300,571.74Z" transform="translate(-65 -33.39)"/><path class="cls-61" d="M320.81,618.46c-7.34-2.11-9.65-8.5-12.34-14.55-1.06-2.4.86-2.6,2.29-3.16l16.74-6.65C325.24,602.22,323.93,610.59,320.81,618.46Z" transform="translate(-65 -33.39)"/><path class="cls-62" d="M334.09,520.62q-1.21-4.35-2.45-8.72a3,3,0,0,1,.64-3.89c4.1-3.29,8.16-6.62,12.44-9.67a2.44,2.44,0,0,1,2.85.32c3.35,7.21.85,14.08-1.19,21C342.5,522.77,338.44,523.46,334.09,520.62Z" transform="translate(-65 -33.39)"/><path class="cls-63" d="M334.09,520.62a27.94,27.94,0,0,1,12.29-1q-3.42,13.62-6.81,27.24Q336.83,533.74,334.09,520.62Z" transform="translate(-65 -33.39)"/><path class="cls-64" d="M347.57,498.66,331.64,511.9c-3.83,1.81-6.55,5.08-9.91,7.51-1.3,2.4-2.88,5.11-5.87,2.66-2.43-2-1-4.3,1.08-6a10.32,10.32,0,0,0,1.95-2.27c3.19-3.76,6.38-7.54,11.85-7.9l16.52-12.4C347.36,495.2,347.47,496.93,347.57,498.66Z" transform="translate(-65 -33.39)"/><path class="cls-65" d="M351.22,493.77l1.33,1.31c-.22,2.74.23,5.57-1.25,8.84C348.9,500.16,350.25,497,351.22,493.77Z" transform="translate(-65 -33.39)"/><path class="cls-66" d="M330.74,505.86c-2.72,3.59-6.45,6-10.05,8.58-7.67,2.76-14.41,6.46-16,15.51-1.59,1.52-3,3.21-4.46,4.81-1.67,1.8-3.48,3.46-6.18,1.72-2.6-3.19-2.24-7-2.22-10.75a4.86,4.86,0,0,1,4.57-4.93c10.08-9.27,20.41-18.25,31.23-26.64C329.24,497.91,328.56,502.26,330.74,505.86Z" transform="translate(-65 -33.39)"/><path class="cls-67" d="M296.42,520.8l-2.93,4.89c-.6.92-.3,2.15-1,3-1.16.95-2.33,1.56-3.59.17a189.13,189.13,0,0,0-5.31-29.11c-.62-2.25-1-4.81-3.3-6.29.81-4.28,3.17-5.55,7.14-3.68l1.34.31q2.29,5.52,4.6,11C294.76,507.63,296.43,514.08,296.42,520.8Z" transform="translate(-65 -33.39)"/><path class="cls-68" d="M246.86,508.57a61.85,61.85,0,0,1-12,6.05c-5.29-1-7.19-4.62-7.34-9.58-.14-4.46-.38-8.91-.43-13.36-.07-4.87,2.8-7.78,7.28-7.89,4.15-.11,9.93-1.68,10.43,5.64a19.68,19.68,0,0,0,.67,2.32c1.07,5.36,3.24,6.26,6.8,1.73,2.31,2.81,2.41,4.62-1,7.25C249.29,502.23,245.09,504.24,246.86,508.57Z" transform="translate(-65 -33.39)"/><path class="cls-69" d="M287.39,489.81l-7.14,3.68-2.48.44c.3-5.74,6-6.47,9-9.71Q287.08,487,287.39,489.81Z" transform="translate(-65 -33.39)"/><path class="cls-70" d="M303.81,529c-.46-9.39,8.55-17.17,16.88-14.57-1.26,2.21-4.17,3.38-4.17,6.66,2.42,1.48,3.45-1.37,5.21-1.7a16.72,16.72,0,0,1-4.48,12.84c-10.38,11.17-13,25.7-17.28,39.5-1.54.55-1.25,2-1.57,3.16-.65,5.51-.91,11.12-3.51,16.17-1.3,2.53-1.87,5.84-5.46,6.51a187.53,187.53,0,0,1-9.51-28c-.05-3.29-.11-6.59,1.63-9.59,4.1-4.66,7.94-9.49,10-15.45,2-4.12,5.9-6.59,8.8-9.93A13.77,13.77,0,0,0,303.81,529Z" transform="translate(-65 -33.39)"/><path class="cls-71" d="M276.84,559.42c4.41-7.95,10.87-14.38,16-21.81a2.56,2.56,0,0,1,2.22-1.08l8.76-7.52c2,2.73-.08,4.6-1.54,6.42-2.79,3.46-5.78,6.78-8.68,10.15-2.87,5.26-7.53,9.4-9.46,15.24q-2.1,4.39-4.21,8.81C278.08,566.47,277.74,562.86,276.84,559.42Z" transform="translate(-65 -33.39)"/><path class="cls-36" d="M206.8,591.57c-5.43-7.72-8.72-16.38-11.32-25.38-.79-2.74,0-4.05,2.31-5.3a82.85,82.85,0,0,1,26-8.39c4.05-.64,7.09.78,8.82,4.77,7.86,18.15,14.73,36.58,16.42,56.51a24.14,24.14,0,0,1-.45,6c-.67,3.95-3.23,5.46-7.05,4.83A24.65,24.65,0,0,1,230,619.36c-9.69-7.67-17.68-16.72-23.24-27.81,8.62-1.69,15.47,2.51,19.65,12.06,2.47-6.63,3.94-6.94,11.28-2.34-2.31-5.36-6.5-9.87-6.69-16,0-1.09-.41-2.13-1.7-2.09-8.06.21-10.3-6-13.07-11.69a4.72,4.72,0,0,0-.95-1.5C216.81,588.76,216.81,588.76,206.8,591.57Z" transform="translate(-65 -33.39)"/><path class="cls-42" d="M326.66,647.13c9.23-5.54,18.83-10.51,27.12-17.5,6.52-2.51,11.45-7.94,18.28-9.87,6.28,4.67,14.35,8,13.47,18-3.87-1.15-6.84-4.23-11.13-4.64-15.48-1.49-25,3.74-32,17.82a82.53,82.53,0,0,0-5.7,14.78c-.42,1.55-.56,3.51-2.62,3.6-2.4.1-2.85-2-3.26-3.78C329.34,659.43,328,653.27,326.66,647.13Z" transform="translate(-65 -33.39)"/><path class="cls-72" d="M215.44,482.72c.29-1.57-.67-4.09,2.43-3.72,2.12.26,4.51,1.5,3.7,3.78-.69,1.92.56,5.73-3,5.64C215.16,488.33,215.73,485.1,215.44,482.72Z" transform="translate(-65 -33.39)"/><path class="cls-73" d="M370.07,208.74c-3.52-6-8.58-10.94-12.42-16.75C364.25,195.74,368.6,201.16,370.07,208.74Z" transform="translate(-65 -33.39)"/><path class="cls-74" d="M295.05,536.53l-2.22,1.08c-.2-3.1-.41-6.21-.61-9.32l1.27-2.61Z" transform="translate(-65 -33.39)"/><path class="cls-37" d="M206.8,591.57c0-.2,0-.53.12-.58,10.14-5,6.66-13.47,5.51-21.34a11.88,11.88,0,0,1-.37-1.79c0-1.87-1.55-4.47,1.13-5.31,2.34-.73,2.67,2,3.52,3.46a53.59,53.59,0,0,1,3.61,7.08c2.16,5.41,4.76,9.38,11.71,6.58,2.13-.86,5.3-.18,2.73,3.3-2.22,3-1,5.27.41,7.82q3.77,6.65,7.42,13.34c.57,1,1.3,2.33,0,3.31s-2.25-.06-3.18-.84c-2-1.7-4-3.44-6.07-5.14-.9-.75-1.74-2-3.11-1.36-1.62.74-1.19,2.38-1.3,3.77-.18,2.47,2.5,6.43-.55,7.08-3.79.81-3.67-4.06-4.57-6.62-1.76-4.94-4.39-8.44-9.77-9.69-2.54-.59-4.87-2-7.29-3.09Z" transform="translate(-65 -33.39)"/><path class="cls-4" d="M489.1,402.24l-51.45,33.42L433,436a7.28,7.28,0,0,0-6.89,6.05s-1.05,1.44-5.08,1.7L355,493s5.95,4.14-1.53,13.07l-3.27,10.41,118.36-11.64L519,477s8.62-1.4,2.31-10.7S489.1,402.24,489.1,402.24Z" transform="translate(-65 -33.39)"/></svg>